<svg xmlns="http://www.w3.org/2000/svg" viewBox="0 0 4680 3120" width="550" height="550"><g data-name="2"><rect width="4680" height="3120" fill="#ffffff" data-name="2" opacity="0" class="colorfff svgShape"></rect><path fill="#faddde" d="M1773.07,733.57c-91.44-18.24-299.16-60.14-408.48-85.69a55.27,55.27,0,0,0-67.89,53.35q-2.13,302.09-2.9,604.16-.13,90.89.15,181.76c.18,40.28-13.66,99.78,17.15,132.55,26.81,28.51,97-1,130.26-8.13,105-22.46,209.82-46,314.56-69.7l8.41-1.91a55.21,55.21,0,0,0,43.05-53l10.14-698.43A55.22,55.22,0,0,0,1773.07,733.57Z" class="colorfaddde svgShape"></path><path fill="#faddde" d="M1491.11,614.9c-53.33-11.19-106.64-22.52-159.78-34.56-20.29-4.6-40.6-11.49-61.42-6a69.79,69.79,0,0,0-43.44,34.44c-11.48,21.8-8.13,47.91-8.29,71.67q-.3,44.24-.59,88.45-.57,87.36-1,174.7-.94,175.8-1.33,351.61-.17,88.13-.07,176.24c0,26.3,1.07,52.78-.2,79-1,20.1-3.07,40.14-3,60.27.19,34.68,8.45,82.58,47.89,92.92,17.61,4.62,36.59,2.32,54.22-1,18.65-3.5,36.85-9,55.09-14.14,7.22-2.06,14.45-4.09,21.79-5.69,7.79-1.69,4.49-13.61-3.29-11.92-34,7.4-66.9,21.64-102.13,22.83-15.2.51-31.06-1.68-41.61-13.62-12.57-14.22-17.32-33.71-18.86-52.17-1.66-19.85-.19-39.82,1.15-59.64,1.52-22.42,1.43-44.72,1.36-67.18q-.24-84.75,0-169.49.24-169.71,1.14-339.43t2.08-339.44c.08-11.24-.16-22,4-32.65a57.25,57.25,0,0,1,15.52-21.79c14.21-12.52,33.32-16.33,51.53-12.14q72.47,16.66,145.22,32,20.39,4.32,40.76,8.6C1495.59,628.45,1498.91,616.53,1491.11,614.9Z" class="colorfaddde svgShape"></path><path fill="#faddde" d="M3279.31,469.22l-202.08-3.74-21.68-.4L2673.8,458l-28.48-.53-418.42-7.73-35.89-.67L1646.73,439a92.64,92.64,0,0,0-94.34,88.18c-15.29,325.74-52,1437.35-62.88,1771.4a92.61,92.61,0,0,0,92.82,95.55l687.68-1.09,227.12-.36,232.18-.37,168-.26,134.08-.21,96.48-.16,33-.05a92.65,92.65,0,0,0,92.37-86.33l116.87-1737.4A92.61,92.61,0,0,0,3279.31,469.22Z" opacity=".5" class="colorfaddde svgShape"></path><path fill="#faddde" d="M3376.7,429.72c-15.43-3.54-32-3.75-47.72-5l-83.64-6.81-120.55-9.8-256.67-20.87L2672.39,371.3l-299.95-24.4-182.65-14.85-268.7-21.85-289.65-23.55c-7.33-.6-14.71-1.46-22.07-1.63-38.94-.86-76.29,21-94.56,55.31-12.37,23.26-13,50.07-15.76,75.72q-3.63,33.72-7.16,67.45-19.16,182.85-37.17,365.81Q1432,1077,1409.81,1304.68q-22.47,229.74-44.67,459.5-18.3,189.09-36.46,378.2-6.17,64.07-12.3,128.14c-.65,6.73,9.89,6.68,10.53,0q14.67-153.11,29.43-306.19,20.63-213.88,41.4-427.77,22.62-232.72,45.52-465.42,20.57-208.5,41.61-417,8.49-83.65,17.2-167.27,3.53-33.63,7.12-67.26c2.77-25.73,3-53.48,16.07-76.48,18.39-32.3,53.78-49.87,90.54-47.29,7.57.54,15.13,1.24,22.69,1.85l123.3,10,339.69,27.62,150.11,12.21,307.14,25,175,14.22,313,25.46q100.89,8.22,201.79,16.41l82,6.67c17.08,1.39,35.3,1.48,51.7,6.84,46.43,15.17,69.2,61,63.13,107.38q-8,61.44-16.07,122.89Q3413,797.24,3396.63,922l-42.75,326.87q-23.34,178.35-46.66,356.71-22.2,169.74-44.41,339.47-17.83,136.4-35.68,272.79-10.29,78.72-20.59,157.43l-2.73,20.83c-.87,6.69,9.67,6.63,10.54,0l11.28-86.26L3255.18,2084q20.68-158.14,41.38-316.3,23.37-178.71,46.75-357.42Q3366.14,1235.61,3389,1061q19.08-145.9,38.17-291.81l24.21-185.1c1.62-12.37,3.28-24.75,4.86-37.13C3463,493.88,3430,442,3376.7,429.72Z" class="colorfaddde svgShape"></path><path fill="#ffffff" d="M1792.17,771.18c-31.82-6.35-79.36-15.9-131.49-26.56-70-14.34-148.34-30.69-207.79-44-11.48-2.57-22.25-5-32.12-7.34A49.54,49.54,0,0,0,1359.89,741q-.83,113.88-1.41,227.75-.29,53.75-.53,107.5-.69,152.25-.72,304.51c0,42.53-6,86.32-2.24,129a238,238,0,0,0,3.78,26.8c16.63,82.41,61.57,45.28,125.52,31.73q58.1-12.31,116.12-25.13,92-20.26,183.85-41.29a49.48,49.48,0,0,0,38.53-47.5L1831,888.2l1-67.82A49.46,49.46,0,0,0,1792.17,771.18Z" class="colorfff svgShape"></path><ellipse cx="2208.77" cy="699.68" fill="#ffffff" rx="44.17" ry="44.08" class="colorfff svgShape"></ellipse><path fill="#faddde" d="M2190.68,546.79q-.06,16.82-.15,33.61c0,.3,0,.62,0,.93.48,9,8.58,17.4,17.92,17,8.92-.4,16.5-6.67,17.75-15.42a18.46,18.46,0,0,0,.19-2.49q.23-46.12.36-92.27.06-19.19.12-38.37l-35.89-.67Q2190.9,497.95,2190.68,546.79Z" class="colorfaddde svgShape"></path><path fill="#faddde" d="M2175.58,590.22,2051.85,699.69h313.84l-128.94-110A46.65,46.65,0,0,0,2175.58,590.22Z" class="colorfaddde svgShape"></path><ellipse cx="2659.43" cy="650.25" fill="#ffffff" rx="35.06" ry="34.99" class="colorfff svgShape"></ellipse><path fill="#faddde" d="M2645.09,528.92q-.08,13.32-.13,26.66c0,.25,0,.5,0,.74.39,7.16,6.81,13.81,14.22,13.48,7.09-.32,13.1-5.3,14.09-12.24a12.81,12.81,0,0,0,.15-2q.2-36.6.29-73.23,0-12.17.07-24.33l-28.48-.53Q2645.26,493.21,2645.09,528.92Z" class="colorfaddde svgShape"></path><path fill="#faddde" d="M2633.09,563.38l-98.2,86.88H2784l-102.33-87.32A37,37,0,0,0,2633.09,563.38Z" class="colorfaddde svgShape"></path><path fill="#ffffff" d="M3066.41,548.21a26.63,26.63,0,1,0,26.68,26.63A26.66,26.66,0,0,0,3066.41,548.21Z" class="colorfff svgShape"></path><path fill="#faddde" d="M3055.49,482.49q0,10.14-.09,20.3c0,.18,0,.36,0,.55.3,5.46,5.19,10.51,10.83,10.26a11.1,11.1,0,0,0,10.72-9.3h0a10.59,10.59,0,0,0,.12-1.5q.08-18.66.15-37.31l-21.68-.4C3055.54,470.89,3055.51,476.69,3055.49,482.49Z" class="colorfaddde svgShape"></path><path fill="#faddde" d="M3046.37,508.71l-74.74,66.13H3161.2l-77.88-66.46A28.2,28.2,0,0,0,3046.37,508.71Z" class="colorfaddde svgShape"></path><path fill="#faddde" d="M1792.17 771.18c-31.82-6.35-79.36-15.9-131.49-26.56L1355 1509.83a238 238 0 003.78 26.8c16.63 82.41 61.57 45.28 125.52 31.73q58.1-12.31 116.12-25.13l230.6-655 1-67.82A49.46 49.46 0 001792.17 771.18zM1359.89 741q-.83 113.88-1.41 227.75l94.41-268.18c-11.48-2.57-22.25-5-32.12-7.34A49.54 49.54 0 001359.89 741z" opacity=".35" class="colorfaddde svgShape"></path><ellipse cx="2340" cy="2563.05" fill="#edbec1" rx="1229.78" ry="271.95" class="coloredbec1 svgShape"></ellipse><ellipse cx="2340" cy="2549.05" fill="#faddde" rx="1229.78" ry="271.95" class="colorfaddde svgShape"></ellipse><ellipse cx="2985.26" cy="2554.67" fill="#efced1" rx="259.67" ry="56.5" class="colorefced1 svgShape"></ellipse><ellipse cx="1766.16" cy="2488.51" fill="#efced1" rx="259.67" ry="56.5" class="colorefced1 svgShape"></ellipse><path fill="#b3a834" d="M1779.69,2189.59c.58-5.28-89.07-598.23-219.32-626.25s-40.89,201.91,42.41,342.9S1770.32,2274.4,1779.69,2189.59Z" class="colorb3a834 svgShape"></path><path fill="#bec238" d="M1751.2,2256.62c-3-11-107.53-553.93-30.29-600.51s163.57,44.5,143.88,228.41-84.72,372.1-84.72,372.1Z" class="colorbec238 svgShape"></path><path fill="#b3a834" d="M1766.62,2208c-5.3-16.91,35.57-426.83,137.05-490.69s185.33-32.57,181.27,50.23-318.32,449.3-318.32,449.3Z" class="colorb3a834 svgShape"></path><path fill="#bec238" d="M1796.91,2208c-3.21,8.44,82.52-320,328.64-263.86,49.23,22.78,65.89,95.41-47.7,122.71S1828,2126.53,1796.91,2208Z" class="colorbec238 svgShape"></path><path fill="#b3a834" d="M1693.65,2197.16s4.54-146.78-80.27-192.28-327.13-193.54-256-274,383.17,213.36,377.11,449.62S1693.65,2197.16,1693.65,2197.16Z" class="colorb3a834 svgShape"></path><path fill="#bec238" d="M1720.91,2189.59S1681.53,2076,1478.59,2065.4s-189.32-134.19-48.47-120.1S1708.79,2097.2,1720.91,2189.59Z" class="colorbec238 svgShape"></path><path fill="#ad443d" d="M1827.49,2191.94c-27.07-3.49-62-29.69-81.22-5.24-13.1,17.47-7.86,44.54-29.69,58.52-17.6,11.5-37.3,12-56.25,7.56v160.43c0,46.94,32.17,85,71.88,85h75.87c39.67,0,71.84-38,71.84-85V2180.46C1865,2190.49,1845.87,2194.24,1827.49,2191.94Z" class="colorad443d svgShape"></path><path fill="#993636" d="M1879.05,2144.15H1661.19a96.13,96.13,0,0,0-.86,13.11v95.52c19,4.43,38.65,3.94,56.25-7.56,21.83-14,16.59-41,29.69-58.52,19.21-24.45,54.15,1.75,81.22,5.24,18.38,2.3,37.51-1.45,52.43-11.48v-23.2A96.12,96.12,0,0,0,1879.05,2144.15Z" class="color993636 svgShape"></path><path fill="#b8733f" d="M1842.07,2672.72l186.28-109.67h93.15l184,119.51s11.36,13.63,3.79,18.93H1832.23S1817.25,2687.08,1842.07,2672.72Z" class="colorb8733f svgShape"></path><rect width="93.14" height="920.38" x="2028.35" y="1672.34" fill="#c98958" rx="6.53" class="colorc98958 svgShape"></rect><path fill="#bf8043" d="M2482,1633.58c0,53.75-183.92,97.33-410.83,97.33s-410.82-43.58-410.82-97.33a26.79,26.79,0,0,1,4.36-14.17c28.94-47,199.92-83.15,406.46-83.15s377.53,36.12,406.47,83.15A26.79,26.79,0,0,1,2482,1633.58Z" class="colorbf8043 svgShape"></path><ellipse cx="2071.15" cy="1619.41" fill="#e0b062" rx="406.46" ry="83.15" class="colore0b062 svgShape"></ellipse><rect width="43.92" height="519.48" x="2967.65" y="1984.97" fill="#9c4933" rx="4.83" class="color9c4933 svgShape"></rect><path fill="#9c4933" d="M2983.74,2238.65c-111.56,0-202,25.43-202,56.79s90.43,56.8,202,56.8,202-25.43,202-56.8S3095.3,2238.65,2983.74,2238.65Zm1.52,93.69c-97.34,0-176.25-17-176.25-37.86s78.91-37.86,176.25-37.86,176.25,17,176.25,37.86S3082.6,2332.34,2985.26,2332.34Z" class="color9c4933 svgShape"></path><path fill="#9c6044" d="M3252.37 2584a20.45 20.45 0 01-19.61-14.69c-101-344.22-111.45-583.6-102.45-723.79 9.89-154.14 44.32-225.83 45.78-228.81a20.45 20.45 0 0136.74 18h0c-.33.67-33 69.73-41.95 217.23-8.31 136.44 2.48 369.66 101.12 705.9a20.45 20.45 0 01-13.87 25.37A20.21 20.21 0 013252.37 2584zM2827.33 1804c-11.94 5.27-25.87 11.33-39.36 17q1.83 18.75 3.12 39.56c8.31 136.45-2.48 369.67-101.12 705.9a20.45 20.45 0 1039.24 11.51c101-344.22 111.45-583.59 102.45-723.79C2830.52 1836.4 2829 1819.68 2827.33 1804z" class="color9c6044 svgShape"></path><path fill="#9c6044" d="M3170.22,1933.7c-8,38.49-93.92,71.18-209.76,71.18S2750.7,1973,2750.7,1933.7s93.91-71.18,209.76-71.18S3187.25,1851.83,3170.22,1933.7Z" class="color9c6044 svgShape"></path><ellipse cx="2960.46" cy="1906.24" fill="#bd8153" rx="209.76" ry="65.1" class="colorbd8153 svgShape"></ellipse><path fill="#b5703c" d="M3189.93,1492.38c-7-9.6-16.6-16.59-21-27.07-22.71-47.16-57.64-81.22-89.08-124.89-9.5-13.71-14.85-28.07-20.1-42.48-51.26-.57-96,2.59-113.34,5.22-4.29.65-6.92,1.27-7.57,1.8,0,0-72.7,316.53-32.11,324.15,40.35,7.57,262.61,59.89,318.84,37.85C3235.59,1606.55,3233.18,1547.3,3189.93,1492.38Z" class="colorb5703c svgShape"></path><path fill="#c9814a" d="M3272.07,1347.74c-29.9-38.22-129.63-48.87-212.28-49.8,5.25,14.41,10.6,28.77,20.1,42.48,31.44,43.67,66.37,77.73,89.08,124.89,4.36,10.48,14,17.47,21,27.07,43.25,54.92,45.66,114.17,35.68,174.58.35-.13.69-.27,1-.41C3281.15,1643.47,3325.07,1415.52,3272.07,1347.74Z" class="colorc9814a svgShape"></path><polygon fill="#b3680d" points="2725.89 2692.41 2694.13 2674.99 2731.84 2672.72 2725.89 2692.41" class="colorb3680d svgShape"></polygon><path fill="#d47b0f" d="M2511.36,2689.36c-.06.36-13,12.89,0,20.46s68,12.28,130.62-4.46c47.46-15.23,83.92-27.34,83.92-27.34v14.39l36.28-8.33s28.32-45.67,10.35-65.24-113.38,7.68-113.38,7.68Z" class="colord47b0f svgShape"></path><path fill="#e8c2b5" d="M2653.41,2444.52c10.36,34.61,24.62,86.42,15.58,101-13.63,22-50.74,75-97.69,97.68-41.64,23.48-59.82,28-60.58,52.25,0,0,30.29,24.24,139.34-3,34.08-12.12,56-24.24,84.05-31s49.23-25,34.08-54.52-19.69-68.16-16.66-93.15c1.58-13.05,4.42-50.28,6.76-82.87C2724.6,2442.9,2689.34,2448.42,2653.41,2444.52Z" class="colore8c2b5 svgShape"></path><path fill="#e0977d" d="M2644.19,2412.22c-.32,1.53,3.95,14.69,9.22,32.3,35.93,3.9,71.19-1.62,104.88-13.7,2.15-29.79,3.89-55.7,3.89-55.7Z" class="colore0977d svgShape"></path><polygon fill="#639edb" points="2502.02 1571.86 2513.94 1563.34 2617.5 1552.55 2708.75 1684.88 2657.63 1711.24 2502.02 1571.86" class="color639edb svgShape"></polygon><path fill="#a8d3ff" d="M2504.67,1574.13c2.46-.57,107.67-10.79,107.67-10.79l89,131.42-118.13,12.55Z" class="colora8d3ff svgShape"></path><path fill="#d1847c" d="M2602.63,1387.66c-2.55-.76-220.64,202.18-287.28,199.16s-60.58-31.48-34.07-55.88,237.66-201.59,252.86-203.1S2602.63,1387.66,2602.63,1387.66Z" class="colord1847c svgShape"></path><polygon fill="#9c4525" points="2171.47 2477.72 2139.1 2462.39 2164.09 2453.87 2177.15 2456.14 2181.7 2468.3 2171.47 2477.72" class="color9c4525 svgShape"></polygon><path fill="#c4572f" d="M1949,2473.51s-5.59,16.14-.62,32.61,65.74,18.18,99.81,6.82,97.69-53.39,117.57-51.12l5.67,15.9,27.83-4s28.91-48,31.24-57.36Z" class="colorc4572f svgShape"></path><path fill="#e08d85" d="M2230.54,2183.53l-82.92,145.39S2034,2431.15,1994.28,2440.24s-82.92,57.93,8,57.93c69.29,0,88.6-10.22,114.72-28.4s106.78-38.62,113.59-53.38,0-56.8,0-56.8S2332.46,2224.42,2340,2198.3,2288.47,2130.15,2230.54,2183.53Z" class="colore08d85 svgShape"></path><polygon fill="#d1847c" points="3114.26 1686.77 3130.16 1743.57 2947.66 1775.84 2799.24 1720.68 2874.96 1677.69 3017.33 1646.64 3114.26 1686.77" class="colord1847c svgShape"></polygon><path fill="#232a52" d="M2589.48,1907.89c.15,0,1.45.27,3.77.76,33.64,7.13,281.75,61,358.95,23.47,82.54-40.13-13.63-135.16-13.63-135.16l-214.3-26.16H2521.33Z" class="color232a52 svgShape"></path><path fill="#4d578c" d="M3149.88,1831c-.73,27.62-5.86,54.84-18.22,73.88-63.61,80.24-288.52,28.76-362.71-15.91s-172.66-88.59-172.66-88.59L2480.43,2254c-106.77,19.67-264.29-56.8-264.29-56.8s234-496,288.51-519.46c48-20.67,492.56,29.53,600,43,14.68,1.82,23.08,3,23.27,3.18C3139.34,1735.31,3151.1,1783.79,3149.88,1831Z" class="color4d578c svgShape"></path><path fill="#e08d85" d="M2750.69,1159.28A319.89,319.89,0,0,1,2731,1125l-45.39-37.24-25,46.19s-3,92.38-.76,92.38c2.08,0,26.65,7,31.19,20.29a7.27,7.27,0,0,0,1-.55C2723.22,1224.56,2741.62,1193.19,2750.69,1159.28Z" class="colore08d85 svgShape"></path><path fill="#e8c2b5" d="M2909.8,1162c-46.2-17.42-99.2,29.53-123,29.53-11.64,0-25.27-16-36.15-32.25-9.07,33.91-27.47,65.28-58.58,86.82a7.27,7.27,0,0,1-1,.55,13,13,0,0,1,.73,3.95c.4,15.86-36.46,24.23-36.46,24.23s68.15,86.32,123.43,66.64S2956,1179.41,2909.8,1162Z" class="colore8c2b5 svgShape"></path><path fill="#232a52" d="M2577.36 1826.87c7.06-3.88 14.39-7.22 21.68-10.63s14.65-6.68 22-9.92c14.76-6.42 29.65-12.58 44.72-18.28s30.31-11 45.85-15.43a225.33 225.33 0 0123.69-5.44 98.88 98.88 0 0112.21-1.32 50.57 50.57 0 016.26.18c.52 0 1.05.13 1.58.2a12.46 12.46 0 011.58.28 16 16 0 013.23 1 6.41 6.41 0 011.73 1 2.36 2.36 0 01.44.45 2.39 2.39 0 01.41.58 2.3 2.3 0 01.31.73 2.86 2.86 0 01.12.82 4 4 0 01-.89 2.43 7.85 7.85 0 01-1.31 1.37 29 29 0 01-5.48 3.39 120 120 0 01-11.28 4.76c-7.6 2.81-15.29 5.27-23 7.6-15.46 4.59-31 8.77-46.64 12.68-31.22 7.86-62.64 14.87-94.19 21.25 15.62-3.89 31.24-7.71 46.82-11.74s31.16-8 46.69-12.15 31-8.45 46.35-13.21c7.66-2.38 15.31-4.82 22.78-7.63a115.67 115.67 0 0010.93-4.65 25.52 25.52 0 004.77-2.94 4.8 4.8 0 00.78-.8c.19-.24.21-.43.19-.32s0 0 0 .08 0 0 0 0l0 0s0 0-.09-.09a3.5 3.5 0 00-.84-.49 12.94 12.94 0 00-2.55-.75 10.2 10.2 0 00-1.38-.26c-.47-.06-.92-.16-1.41-.18a46.31 46.31 0 00-5.79-.18 98.08 98.08 0 00-11.77 1.23 234.2 234.2 0 00-23.36 5.26c-15.46 4.2-30.67 9.39-45.79 14.8s-30.1 11.26-45 17.3q-11.2 4.48-22.31 9.19-5.55 2.36-11.07 4.78l-5.53 2.43C2581 1825.12 2579.13 1825.9 2577.36 1826.87zM2617.5 1826.87a241.69 241.69 0 0135.35-2.89c3 0 5.93-.08 8.89 0l8.88.22c5.92.3 11.84.62 17.73 1.2 3 .28 5.9.55 8.84 1l8.82 1.15 8.76 1.51c1.45.26 2.92.47 4.37.78l4.34 1c2.89.66 5.8 1.23 8.67 2l8.57 2.33c1.42.41 2.86.77 4.27 1.22l4.21 1.39q4.22 1.41 8.39 2.89c-11.54-2.59-23-5.29-34.62-7.1l-4.34-.75c-1.45-.25-2.91-.42-4.36-.64l-8.72-1.25c-5.84-.65-11.66-1.48-17.52-1.92-11.69-1.15-23.43-1.82-35.19-2.15S2629.3 1826.38 2617.5 1826.87z" class="color232a52 svgShape"></path><path fill="#bf590b" d="M2727.48,1102.49c1.28-.78,58-15.62,58,26.69,0,0-29.31-24.15-55.26-18.61S2720,1107,2727.48,1102.49Z" class="colorbf590b svgShape"></path><path fill="#e8ba10" d="M2664.59,1272.17s25.41,49.61,74,45.06,119-143.87,169.72-159.78c0,0,76.16,31.9,129.17,103.08,0,0-68.38,94.43-84.95,121l43.62,9.91s28.78,120.41,49.23,150.7,73.45,106.77,76.48,154.48c0,0-190.07,45.43-309.72-16.66,0,0-8.33-16.66-.76-28s-19.68-5.3-18.17-18.93,15.15-19.69-16.66-34.08-112.07-47.71-121.16-96.17-7.57-75.72-22-93.14-16.66-22-16.66-22l-22,12.11-90.11-61.33S2606.14,1202.89,2664.59,1272.17Z" class="colore8ba10 svgShape"></path><path fill="#bf590b" d="M2691.71,851.92c-3.41,37.07-48.53,56.79-72.56,56.38-18-.27-28.26-8.86-32.26-13.13a19.68,19.68,0,0,1-2-2.36,86.41,86.41,0,0,1-14.49-8.95c-17.72-13.36-41.21-41.3-4.41-80.79,26.94-28.85,59.84-25.35,85.24-10a97.93,97.93,0,0,1,18.49,14.41C2684.08,821.52,2692.93,838.69,2691.71,851.92Z" class="colorbf590b svgShape"></path><path fill="#bf590b" d="M2570.4 883.86c-17.72-13.36-41.21-41.3-4.41-80.79 26.94-28.85 59.84-25.35 85.24-10C2573.8 799.44 2567.67 853.14 2570.4 883.86zM2691.71 851.92c-3.41 37.07-48.53 56.79-72.56 56.38-18-.27-28.26-8.86-32.26-13.13 30.62-14.08 85.19-44.75 82.83-87.73C2684.08 821.52 2692.93 838.69 2691.71 851.92z" class="colorbf590b svgShape"></path><path fill="#e8c2b5" d="M2494.82,1016.6s-4.54,76.49,16.66,105.26c0,0,32.56,126.46,115.86,137.82,76.48,10.6,93.9-81,88.6-131,0,0,40.13-1.52,41.65-49.22s-33.32-90.87-59.07-35.6c0,0-18.93-100.71-79.51-103.74S2494.82,1016.6,2494.82,1016.6Z" class="colore8c2b5 svgShape"></path><path fill="#e0680d" d="M2754.59,1052.6c-19.26-48.61-54.66-10.26-56-8.77l-.05.05c-.27-.17,25.76,21.18,3.23,6.41-.55-.36-1.14-.73-1.73-1.14-28.76-18.9-61.33-59.52-61.33-59.52-.78.5-1.55,1-2.32,1.45-37.49,22.13-84-1-84-1-45.44-5.27-42.39,37.13-42.39,37.13a8.24,8.24,0,0,0-1.87.09c-16.85,2.09-13.67,43.07-13.67,43.07-110.32-89,42.84-170.2,77.69-186.92,4.27-2.05,6.77-3.14,6.77-3.14,2.05-.31,4.05-.59,6-.77a179.53,179.53,0,0,1,25.22-1.63c88.82.22,139.76,63.6,158.84,103.09C2790.17,1024.93,2754.59,1052.6,2754.59,1052.6Z" class="colore0680d svgShape"></path><path fill="#bf590b" d="M2508.1,1027.3c-16.85,2.09-13.67,43.07-13.67,43.07-110.32-89,37.52-167.59,72.37-184.31C2535,915.32,2488.52,971.18,2508.1,1027.3Z" class="colorbf590b svgShape"></path><path fill="#e0680d" d="M2698.52,1043.88l3.23,6.41c-.55-.37-1.14-.73-1.73-1.14-28.76-18.9-61.33-59.52-61.33-59.52-.78.5-1.55,1-2.32,1.45-7.45-39.84-37.76-89.55-51.48-111.54a179.53,179.53,0,0,1,25.22-1.63c159.7,56.15,90.28,163.11,88.46,165.92Z" class="colore0680d svgShape"></path><path fill="#e08d85" d="M2742.42,1059.73c-.24-.39-.51-.76-.77-1.14l-.39-.57-.45-.53a11.05,11.05,0,0,0-4.66-3.48,7.22,7.22,0,0,0-3.22-.41,10.12,10.12,0,0,0-1.62.33c-.5.21-1,.42-1.48.67a13.86,13.86,0,0,0-4.32,4.11,33,33,0,0,0-4.49,10.08c0,.14-.08.29-.11.44,0-.91.07-1.82.14-2.73.18-1.65.32-3.31.54-5a54.82,54.82,0,0,1,2.06-9.7,21,21,0,0,1,2-4.36,8,8,0,0,1,7.83-4.12c1.66,0,3.37.44,5.1.33a16.26,16.26,0,0,1-2.47-.63,25.13,25.13,0,0,0-2.52-.66,9.61,9.61,0,0,0-5.42.32,10.33,10.33,0,0,0-4.38,3.44,21,21,0,0,0-2.66,4.72,47.82,47.82,0,0,0-2.78,10.15c-.18.86-.26,1.73-.37,2.59l-.31,2.6c-.16,1.74-.23,3.49-.31,5.24a53.29,53.29,0,0,0,3.71,20.58,36.05,36.05,0,0,0,5.23,9.11l1.76,2c.66.59,1.26,1.22,2,1.75a13.5,13.5,0,0,0,4.58,2.43,19.7,19.7,0,0,1-6.91-7.14,40.69,40.69,0,0,1-4.08-9.05,24,24,0,0,1-.69-2.38c-.2-.81-.44-1.6-.63-2.4-.3-1.64-.68-3.25-.84-4.9a48.83,48.83,0,0,1-.51-5.4c.88-2.13,1.76-4.25,2.67-6.31a54.36,54.36,0,0,1,4.75-9,13,13,0,0,1,3.18-3.3,4.93,4.93,0,0,1,3.86-.79,8.56,8.56,0,0,1,2.15.77l1.07.59,1,.73c.73.45,1.33,1.08,2,1.61s1.29,1.2,2,1.78C2743.29,1061.32,2742.88,1060.51,2742.42,1059.73Z" class="colore08d85 svgShape"></path><circle cx="2731.04" cy="1125.03" r="12.64" fill="#eb4d68" class="coloreb4d68 svgShape"></circle><path fill="#e8c2b5" d="M3030.66,1324.26c-21.74,24.26-46.19,46-74,63.43l116.66,171.11c-62.85,9.08-274.12,114-274.12,114-6.06-3.78-41.65-29.92-59.82-26.89s-37.87-10.6-57.56-15.9-18.93,17.42-6.05,24.23,39.37,11.36,37.1,14.39-42.4,12.87-42.4,12.87-95.42-22.72-125-19.69,7.57,21.21,7.57,21.21,40.14,75,76.48,85.45S2784.09,1739,2799.24,1739s315-59.82,352.88-80.27q2.25-1.21,4.43-2.43c-19.63-23-17.79-57.24-5.05-82.72,6.86-14.87,22-20.75,37.46-20.34C3168.22,1501.65,3073.08,1378.07,3030.66,1324.26Z" class="colore8c2b5 svgShape"></path><path fill="#e0977d" d="M3030.66 1324.26c-12.57-15.94-20.51-25.76-20.51-25.76l-57.65 83 4.2 6.16C2984.47 1370.24 3008.92 1348.52 3030.66 1324.26zM3190.74 1558c-.51-1.51-1.11-3.11-1.78-4.78-15.49-.41-30.6 5.47-37.46 20.34-12.74 25.48-14.58 59.67 5.05 82.72C3191.6 1636.68 3210.37 1616.21 3190.74 1558z" class="colore0977d svgShape"></path><path fill="#b86b0d" d="M2937.33 1380.17c-4.36-2.63-8.65-5.39-12.92-8.17s-8.5-5.62-12.69-8.52-8.42-5.76-12.58-8.7-8.36-5.85-12.53-8.79l-12.54-8.81c-4.18-3-8.38-5.85-12.6-8.75-2.13-1.43-4.24-2.87-6.39-4.27l-3.23-2.08-1.66-1a7.91 7.91 0 00-1.73-.84 8.26 8.26 0 011.59 1l1.49 1.2 3 2.43 5.94 4.86c4 3.22 8 6.43 12 9.56s8.12 6.22 12.21 9.3 8.29 6 12.47 9q5.24 3.61 10.54 7.13c-6.07-.41-12.14-.71-18.2-1l-21.48-.93-5.37-.2-5.37-.24-10.73-.44c-7.17-.29-14.32-.67-21.55-.83a192.84 192.84 0 0021.33 3.55c1.79.23 3.58.4 5.38.55s3.58.35 5.38.47c3.59.26 7.19.46 10.79.63 1.8.07 3.6.11 5.4.15s3.59.12 5.39.11c3.61 0 7.2 0 10.8-.11 6.34-.16 12.69-.52 19-1.22l1.44 1c4.32 2.76 8.64 5.52 13.09 8.09s8.93 5.06 13.53 7.35a113 113 0 0014.18 6C2946.12 1385.34 2941.68 1382.83 2937.33 1380.17zM2732 1534.34a97.22 97.22 0 01-17.47-.47c-2.91-.35-5.83-.77-8.73-1.34-1.46-.26-2.91-.58-4.36-.88s-2.91-.68-4.41-.87c.7.27 1.37.58 2.06.89l2.06.89c1.38.59 2.79 1.11 4.21 1.61a67.14 67.14 0 008.74 2.38 68 68 0 0018.13 1.27 67.22 67.22 0 009-1.21c.75-.15 1.48-.34 2.22-.51s1.48-.36 2.21-.58 1.47-.4 2.19-.63l2.15-.75a60.08 60.08 0 0015.9-8.5 123.58 123.58 0 01-16.71 5.9A90.92 90.92 0 012732 1534.34zM2888.43 1477.44a123.4 123.4 0 01-20.32 7.56c-3.48 1-7 1.85-10.57 2.61s-7.13 1.39-10.73 2q-10.8 1.71-21.83 2.55a107.27 107.27 0 0022.16.15c3.7-.3 7.38-.83 11-1.47s7.28-1.51 10.88-2.47 7.11-2.24 10.58-3.62a89 89 0 0010.06-4.9 71 71 0 009.23-6.32 57.16 57.16 0 007.84-7.87 88 88 0 01-18.34 11.78z" class="colorb86b0d svgShape"></path><path fill="#5c6ab8" d="M2581.15,1797s-79.51,22.92-106.77,168-18.18,479.05-21.21,479.8,113.67,20.07,308.29-32.94C2761.46,2411.84,2783.71,1711.24,2581.15,1797Z" class="color5c6ab8 svgShape"></path><path fill="#4d578c" d="M3149.88,1831c-16.18-2.64-35.17-8.91-40.17-23.81-6.86-20.54-5.95-65.52-5.09-86.51,14.68,1.82,23.08,3,23.27,3.18C3139.34,1735.31,3151.1,1783.79,3149.88,1831Z" class="color4d578c svgShape"></path><rect width="2.62" height="3.49" x="2332.76" y="2237.43" fill="#6e88e5" transform="rotate(-68.06 2333.858 2239.144)" class="color6e88e5 svgShape"></rect><path fill="#6e88e5" d="M2498.51 1846.21l3.09 1.63q1.23-2.31 2.47-4.61l-3.07-1.67zM2466.91 1912.54l3.19 1.41 2.13-4.79-3.19-1.43C2468.35 1909.26 2467.64 1910.87 2466.91 1912.54zM2475.56 1893.41l3.18 1.46c.72-1.58 1.45-3.16 2.19-4.76l-3.17-1.46Q2476.65 1891 2475.56 1893.41zM2480 1883.89l3.16 1.47q1.11-2.35 2.22-4.74l-3.16-1.48Q2481.07 1881.53 2480 1883.89zM2484.44 1874.39l3.15 1.51c.75-1.57 1.5-3.15 2.26-4.72l-3.14-1.52zM2493.68 1855.56l3.11 1.58q1.18-2.34 2.39-4.66l-3.11-1.6Q2494.87 1853.21 2493.68 1855.56zM2489 1865l3.14 1.54q1.14-2.34 2.31-4.68l-3.13-1.56C2490.54 1861.82 2489.77 1863.38 2489 1865zM2472 1901.1l-.84 1.84 3.18 1.45c.29-.63.56-1.24.84-1.83l1.34-2.93-3.18-1.46z" class="color6e88e5 svgShape"></path><rect width="5.24" height="3.49" x="2442.17" y="1966.94" fill="#6e88e5" transform="rotate(-67.23 2444.768 1968.69)" class="color6e88e5 svgShape"></rect><rect width="5.24" height="3.49" x="2446.24" y="1957.28" fill="#6e88e5" transform="rotate(-67.15 2449.065 1959.04)" class="color6e88e5 svgShape"></rect><rect width="5.24" height="3.49" x="2438.12" y="1976.61" fill="#6e88e5" transform="rotate(-67.32 2440.844 1978.365)" class="color6e88e5 svgShape"></rect><rect width="5.24" height="3.49" x="2450.32" y="1947.62" fill="#6e88e5" transform="rotate(-67.05 2452.774 1949.35)" class="color6e88e5 svgShape"></rect><path fill="#6e88e5" d="M2458.54,1931.8l3.21,1.38q1-2.46,2.07-4.82l-3.21-1.38C2459.93,1928.55,2459.24,1930.15,2458.54,1931.8Z" class="color6e88e5 svgShape"></path><rect width="5.24" height="3.49" x="2454.42" y="1937.97" fill="#6e88e5" transform="rotate(-66.92 2456.811 1939.699)" class="color6e88e5 svgShape"></rect><path fill="#6e88e5" d="M2462.7 1922.16l3.2 1.39q1.08-2.47 2.09-4.8l-3.2-1.41Q2463.77 1919.68 2462.7 1922.16zM2526.07 1801.38l2.81 2.08c1-1.39 2.09-2.78 3.14-4.13l-2.75-2.15C2528.2 1798.55 2527.13 1800 2526.07 1801.38zM2595.19 1760.86c1.67.06 3.37.21 5 .43l.46-3.46c-1.79-.24-3.6-.4-5.38-.46zM2555.39 1770.94l2.07 2.82c1.4-1 2.82-2 4.22-2.9l-1.89-2.94C2558.33 1768.85 2556.85 1769.87 2555.39 1770.94zM2574.14 1760.74l1.18 3.29c1.61-.58 3.24-1.09 4.85-1.51l-.88-3.38C2577.58 1759.59 2575.85 1760.13 2574.14 1760.74zM2564.38 1765.18l1.69 3.06c1.5-.83 3-1.61 4.55-2.3l-1.45-3.17C2567.58 1763.49 2566 1764.3 2564.38 1765.18zM2503.53 1837l3 1.7c.85-1.53 1.7-3 2.56-4.55l-3-1.73Q2504.8 1834.65 2503.53 1837zM2625 1768.61l4.9 1.84 1.24-3.26-4.92-1.86zM2606 1758.78l-.78 3.41c.66.15 1.31.31 2 .48.93.25 1.92.53 3 .85l1-3.35c-1.1-.33-2.14-.62-3.1-.87C2607.4 1759.11 2606.7 1758.94 2606 1758.78zM2615.13 1765.1c1.54.52 3.19 1.1 4.92 1.72l1.18-3.29q-2.64-.94-5-1.74zM2584.55 1758l.56 3.45c1.66-.27 3.35-.45 5-.56l-.22-3.48C2588.13 1757.55 2586.33 1757.75 2584.55 1758zM2514.21 1818.81l3 1.86c.93-1.47 1.86-2.94 2.81-4.39l-2.93-1.9Q2515.63 1816.57 2514.21 1818.81zM2508.75 1827.82l3 1.77q1.32-2.27 2.67-4.48l-3-1.81Q2510.09 1825.54 2508.75 1827.82zM2547.15 1777.68l2.34 2.59c1.3-1.17 2.61-2.3 3.91-3.36l-2.22-2.7C2549.84 1775.31 2548.49 1776.47 2547.15 1777.68zM2520 1810l2.89 2c1-1.45 2-2.87 3-4.28l-2.85-2C2522 1807.08 2521 1808.52 2520 1810zM2539.58 1785.11l2.55 2.4c1.19-1.27 2.41-2.51 3.61-3.7l-2.45-2.49C2542.06 1782.54 2540.81 1783.81 2539.58 1785.11z" class="color6e88e5 svgShape"></path><rect width="5.24" height="3.49" x="2434.08" y="1986.29" fill="#6e88e5" transform="rotate(-67.37 2436.724 1988.036)" class="color6e88e5 svgShape"></rect><path fill="#6e88e5" d="M2532.58,1793.06l2.7,2.23c1.11-1.35,2.24-2.68,3.36-4L2536,1789C2534.88,1790.33,2533.72,1791.68,2532.58,1793.06Z" class="color6e88e5 svgShape"></path><rect width="5.24" height="3.49" x="2370.34" y="2141.42" fill="#6e88e5" transform="rotate(-67.88 2372.728 2143.133)" class="color6e88e5 svgShape"></rect><rect width="5.25" height="3.49" x="2338.81" y="2219.18" fill="#6e88e5" transform="rotate(-68 2341.432 2220.925)" class="color6e88e5 svgShape"></rect><rect width="5.25" height="3.49" x="2346.68" y="2199.72" fill="#6e88e5" transform="matrix(.38 -.93 .93 .38 -573.09 3552.5)" class="color6e88e5 svgShape"></rect><rect width="5.25" height="3.49" x="2342.75" y="2209.45" fill="#6e88e5" transform="rotate(-67.97 2345.467 2211.207)" class="color6e88e5 svgShape"></rect><rect width="5.26" height="3.49" x="2334.87" y="2228.93" fill="#6e88e5" transform="rotate(-68.02 2337.463 2230.667)" class="color6e88e5 svgShape"></rect><rect width="5.24" height="3.49" x="2354.56" y="2180.28" fill="#6e88e5" transform="rotate(-67.94 2357.056 2182.001)" class="color6e88e5 svgShape"></rect><rect width="5.24" height="3.49" x="2362.45" y="2160.84" fill="#6e88e5" transform="rotate(-67.91 2364.822 2162.555)" class="color6e88e5 svgShape"></rect><path fill="#6e88e5" d="M2650.65,1774.84l-4.87-1.93-1.29,3.25,4.87,1.93Z" class="color6e88e5 svgShape"></path><rect width="5.24" height="3.49" x="2350.62" y="2190" fill="#6e88e5" transform="rotate(-67.94 2353.117 2191.724)" class="color6e88e5 svgShape"></rect><rect width="5.24" height="3.49" x="2358.5" y="2170.56" fill="#6e88e5" transform="matrix(.38 -.93 .93 .38 -539.62 3543.27)" class="color6e88e5 svgShape"></rect><rect width="3.49" height="5.24" x="2655.56" y="1776.76" fill="#6e88e5" transform="rotate(-68.19 2657.396 1779.38)" class="color6e88e5 svgShape"></rect><rect width="3.49" height="5.24" x="2704.26" y="1796.14" fill="#6e88e5" transform="rotate(-68.65 2705.784 1798.757)" class="color6e88e5 svgShape"></rect><path fill="#6e88e5" d="M2718.84,1801.87,2714,1800l-1.26,3.26,4.89,1.89Z" class="color6e88e5 svgShape"></path><rect width="5.24" height="3.49" x="2430.05" y="1995.96" fill="#6e88e5" transform="rotate(-67.44 2432.48 1997.694)" class="color6e88e5 svgShape"></rect><rect width="3.49" height="5.24" x="2665.29" y="1780.66" fill="#6e88e5" transform="rotate(-68.16 2666.957 1783.279)" class="color6e88e5 svgShape"></rect><rect width="3.49" height="5.24" x="2675.02" y="1784.56" fill="#6e88e5" transform="rotate(-68.2 2676.857 1787.177)" class="color6e88e5 svgShape"></rect><rect width="3.49" height="5.24" x="2684.76" y="1788.44" fill="#6e88e5" transform="rotate(-68.31 2686.261 1791.063)" class="color6e88e5 svgShape"></rect><rect width="3.49" height="5.24" x="2694.5" y="1792.3" fill="#6e88e5" transform="rotate(-68.46 2696.195 1794.92)" class="color6e88e5 svgShape"></rect><rect width="5.24" height="3.49" x="2410.03" y="2044.4" fill="#6e88e5" transform="rotate(-67.64 2412.625 2046.138)" class="color6e88e5 svgShape"></rect><rect width="5.24" height="3.49" x="2406.04" y="2054.09" fill="#6e88e5" transform="rotate(-67.66 2408.445 2055.81)" class="color6e88e5 svgShape"></rect><rect width="5.24" height="3.49" x="2414.02" y="2034.7" fill="#6e88e5" transform="rotate(-67.6 2416.565 2036.442)" class="color6e88e5 svgShape"></rect><rect width="5.24" height="3.49" x="2398.07" y="2073.52" fill="#6e88e5" transform="rotate(-67.73 2400.733 2075.271)" class="color6e88e5 svgShape"></rect><rect width="5.25" height="3.49" x="2402.04" y="2063.81" fill="#6e88e5" transform="rotate(-67.7 2404.596 2065.55)" class="color6e88e5 svgShape"></rect><rect width="5.24" height="3.49" x="2366.39" y="2151.13" fill="#6e88e5" transform="rotate(-67.88 2368.774 2152.843)" class="color6e88e5 svgShape"></rect><rect width="5.24" height="3.49" x="2422.02" y="2015.33" fill="#6e88e5" transform="rotate(-67.51 2424.714 2017.084)" class="color6e88e5 svgShape"></rect><rect width="5.24" height="3.49" x="2418.02" y="2025.01" fill="#6e88e5" transform="rotate(-67.55 2420.854 2026.79)" class="color6e88e5 svgShape"></rect><rect width="5.24" height="3.49" x="2426.03" y="2005.64" fill="#6e88e5" transform="rotate(-67.48 2428.605 2007.387)" class="color6e88e5 svgShape"></rect><rect width="5.24" height="3.49" x="2378.25" y="2122" fill="#6e88e5" transform="rotate(-67.84 2380.85 2123.75)" class="color6e88e5 svgShape"></rect><rect width="5.24" height="3.49" x="2374.3" y="2131.71" fill="#6e88e5" transform="rotate(-67.85 2376.88 2133.458)" class="color6e88e5 svgShape"></rect><path fill="#6e88e5" d="M2634.74,1772.33l4.88,1.9,1.27-3.25-4.89-1.91Z" class="color6e88e5 svgShape"></path><rect width="5.24" height="3.49" x="2382.21" y="2112.3" fill="#6e88e5" transform="rotate(-67.8 2384.658 2114.018)" class="color6e88e5 svgShape"></rect><rect width="5.24" height="3.49" x="2390.14" y="2092.89" fill="#6e88e5" transform="rotate(-67.77 2392.95 2094.667)" class="color6e88e5 svgShape"></rect><rect width="5.24" height="3.49" x="2386.17" y="2102.59" fill="#6e88e5" transform="rotate(-67.79 2388.636 2104.316)" class="color6e88e5 svgShape"></rect><rect width="5.22" height="3.49" x="2394.11" y="2083.2" fill="#6e88e5" transform="rotate(-67.74 2396.59 2084.929)" class="color6e88e5 svgShape"></rect><path fill="#6e88e5" d="M2722.48 1807l4.9 1.87 1.24-3.27-4.89-1.86zM2851.7 1850.39l5.08 1.38.91-3.37-5.06-1.38zM2872 1855.73l5.1 1.25.83-3.39-5.08-1.25zM2861.85 1853.12l5.08 1.32.87-3.39-5.06-1.31zM2841.57 1847.54l5.06 1.44.95-3.37-5-1.43zM2902.74 1862.74c1.71.36 3.43.7 5.15 1l.67-3.43c-1.7-.33-3.41-.68-5.12-1zM2913 1864.78l5.17 1 .62-3.44c-1.71-.31-3.43-.62-5.14-1zM2831.49 1844.6l5 1.48 1-3.35-5-1.48zM2732.28 1810.73l4.91 1.85 1.23-3.27-4.9-1.84zM2882.23 1858.21l5.11 1.19.78-3.41-5.09-1.18zM2933.76 1868.31l5.2.76.49-3.46-5.17-.76zM2761.81 1821.61l4.94 1.76 1.17-3.29-4.93-1.76zM2752 1818l4.93 1.79 1.19-3.28-4.92-1.79zM2771.7 1825.12l5 1.73 1.15-3.3-5-1.73zM2742.11 1814.41q2.44.91 4.92 1.82l1.2-3.27-4.91-1.82zM2811.47 1838.44l5 1.57 1-3.34-5-1.56zM2801.5 1835.23l5 1.61 1.08-3.32-5-1.61zM2821.46 1841.56l5 1.53 1-3.34-5-1.53zM2781.61 1828.56l5 1.69 1.12-3.31-5-1.69zM2791.54 1831.93l5 1.66 1.1-3.32-5-1.65zM2892.46 1860.55l5.13 1.12.73-3.42-5.1-1.11zM3067.73 1857.27l1.33 3.23c1.65-.67 3.28-1.38 4.87-2.1l-1.46-3.18C3070.93 1855.92 3069.34 1856.62 3067.73 1857.27zM3077.12 1853l1.59 3.12c1.58-.81 3.16-1.66 4.68-2.53l-1.72-3C3080.19 1851.36 3078.66 1852.19 3077.12 1853zM2944.17 1869.77c1.74.23 3.48.44 5.22.65l.41-3.47c-1.72-.2-3.45-.42-5.18-.64zM3048.08 1863.68l.85 3.39c1.72-.43 3.43-.89 5.11-1.38l-1-3.35C3051.44 1862.81 3049.75 1863.26 3048.08 1863.68zM3038 1865.92l.65 3.43c1.75-.33 3.49-.69 5.18-1.06l-.75-3.41C3041.37 1865.24 3039.66 1865.59 3038 1865.92zM3086.09 1847.88l1.87 2.95c1.5-.94 3-1.94 4.43-2.94l-2-2.87C3089 1846 3087.55 1847 3086.09 1847.88zM3109.39 1827.79l2.65 2.27c1.15-1.35 2.28-2.74 3.35-4.14l-2.77-2.13C3111.58 1825.14 3110.5 1826.49 3109.39 1827.79zM3102.32 1835.26l2.41 2.53c1.28-1.22 2.54-2.49 3.76-3.77l-2.54-2.4C3104.78 1832.86 3103.56 1834.09 3102.32 1835.26zM3094.53 1842l2.14 2.76c1.4-1.09 2.79-2.22 4.12-3.37l-2.28-2.65C3097.22 1839.83 3095.88 1840.92 3094.53 1842zM3058 1860.82l1.07 3.33c1.7-.55 3.38-1.13 5-1.73l-1.2-3.28C3061.32 1859.72 3059.68 1860.29 3058 1860.82zM2975.58 1872.72c1.76.09 3.52.18 5.26.24l.14-3.49c-1.73-.06-3.46-.15-5.21-.24zM2965.09 1872l5.24.39.24-3.48-5.2-.39zM2986.1 1873.13c1.77 0 3.52.07 5.27.09l0-3.5c-1.73 0-3.47 0-5.21-.08zM2954.61 1871c1.75.19 3.5.36 5.24.53l.32-3.48c-1.72-.17-3.45-.34-5.19-.53zM3017.38 1868.74l.31 3.48c1.76-.16 3.53-.34 5.25-.53l-.39-3.47C3020.86 1868.41 3019.12 1868.58 3017.38 1868.74zM3027.71 1867.58l.47 3.46c1.74-.24 3.5-.5 5.22-.78l-.56-3.44C3031.15 1867.09 3029.42 1867.35 3027.71 1867.58zM3007 1869.43l.17 3.49c1.76-.08 3.52-.18 5.26-.3l-.23-3.48C3010.48 1869.25 3008.75 1869.35 3007 1869.43zM2996.6 1869.72l0 3.49c1.77 0 3.52 0 5.27-.09l-.09-3.49C3000.08 1869.67 2998.34 1869.7 2996.6 1869.72zM2923.38 1866.64l5.19.86.55-3.45c-1.71-.28-3.43-.56-5.15-.86zM3116.76 1818c-.48.71-1 1.42-1.45 2.12l2.86 2c.51-.72 1-1.45 1.5-2.2z" class="color6e88e5 svgShape"></path><rect width="3.49" height="5.24" x="2701.11" y="2138.25" fill="#6e88e5" transform="rotate(-7.44 2704.475 2141.969)" class="color6e88e5 svgShape"></rect><rect width="3.49" height="5.24" x="2668.94" y="1931.12" fill="#6e88e5" transform="rotate(-10.13 2671.112 1934.018)" class="color6e88e5 svgShape"></rect><rect width="3.49" height="5.24" x="2667.09" y="1920.8" fill="#6e88e5" transform="rotate(-10.23 2667.756 1922.747)" class="color6e88e5 svgShape"></rect><rect width="3.49" height="5.24" x="2670.76" y="1941.45" fill="#6e88e5" transform="rotate(-10.01 2672.401 1944.027)" class="color6e88e5 svgShape"></rect><rect width="3.49" height="5.24" x="2672.57" y="1951.78" fill="#6e88e5" transform="matrix(.99 -.17 .17 .99 -295.88 488.26)" class="color6e88e5 svgShape"></rect><rect width="3.49" height="5.24" x="2676.11" y="1972.45" fill="#6e88e5" transform="rotate(-9.65 2677.439 1974.808)" class="color6e88e5 svgShape"></rect><rect width="3.49" height="5.24" x="2674.35" y="1962.11" fill="#6e88e5" transform="rotate(-9.77 2676.262 1964.802)" class="color6e88e5 svgShape"></rect><rect width="3.49" height="5.24" x="2659.49" y="1879.54" fill="#6e88e5" transform="rotate(-10.7 2661.804 1882.521)" class="color6e88e5 svgShape"></rect><rect width="3.49" height="5.24" x="2657.54" y="1869.24" fill="#6e88e5" transform="rotate(-10.84 2658.754 1871.579)" class="color6e88e5 svgShape"></rect><rect width="3.49" height="5.25" x="2655.56" y="1858.94" fill="#6e88e5" transform="rotate(-10.95 2656.734 1861.258)" class="color6e88e5 svgShape"></rect><rect width="3.49" height="5.25" x="2653.56" y="1848.64" fill="#6e88e5" transform="rotate(-11.1 2656.355 1851.858)" class="color6e88e5 svgShape"></rect><rect width="3.49" height="5.24" x="2665.22" y="1910.48" fill="#6e88e5" transform="rotate(-10.34 2667.815 1913.573)" class="color6e88e5 svgShape"></rect><rect width="3.49" height="5.24" x="2663.33" y="1900.17" fill="#6e88e5" transform="rotate(-10.47 2665.596 1903.095)" class="color6e88e5 svgShape"></rect><rect width="3.49" height="5.24" x="2677.85" y="1982.79" fill="#6e88e5" transform="rotate(-9.53 2680.655 1986.094)" class="color6e88e5 svgShape"></rect><rect width="3.49" height="5.24" x="2661.42" y="1889.85" fill="#6e88e5" transform="rotate(-10.57 2664.02 1892.993)" class="color6e88e5 svgShape"></rect><rect width="3.49" height="5.24" x="2689.41" y="2055.27" fill="#6e88e5" transform="rotate(-8.63 2692.645 2058.847)" class="color6e88e5 svgShape"></rect><rect width="3.49" height="5.24" x="2694.01" y="2086.38" fill="#6e88e5" transform="rotate(-8.2 2697.224 2090.01)" class="color6e88e5 svgShape"></rect><rect width="3.49" height="5.24" x="2692.5" y="2076.01" fill="#6e88e5" transform="rotate(-8.35 2693.115 2077.876)" class="color6e88e5 svgShape"></rect><rect width="3.49" height="5.24" x="2690.97" y="2065.63" fill="#6e88e5" transform="rotate(-8.49 2693.37 2068.691)" class="color6e88e5 svgShape"></rect><rect width="3.49" height="5.24" x="2695.49" y="2096.76" fill="#6e88e5" transform="rotate(-8.06 2697.861 2099.85)" class="color6e88e5 svgShape"></rect><rect width="3.49" height="5.23" x="2699.75" y="2127.88" fill="#6e88e5" transform="rotate(-7.6 2700.372 2129.737)" class="color6e88e5 svgShape"></rect><rect width="3.49" height="5.24" x="2696.94" y="2107.14" fill="#6e88e5" transform="rotate(-7.92 2699.888 2110.548)" class="color6e88e5 svgShape"></rect><rect width="3.49" height="5.22" x="2698.36" y="2117.53" fill="#6e88e5" transform="rotate(-7.75 2701.256 2120.96)" class="color6e88e5 svgShape"></rect><rect width="3.49" height="5.24" x="2681.27" y="2003.48" fill="#6e88e5" transform="rotate(-9.27 2684.146 2006.83)" class="color6e88e5 svgShape"></rect><rect width="3.49" height="5.24" x="2684.6" y="2024.18" fill="#6e88e5" transform="rotate(-9.04 2685.41 2026.208)" class="color6e88e5 svgShape"></rect><rect width="3.49" height="5.24" x="2682.95" y="2013.83" fill="#6e88e5" transform="rotate(-9.15 2685.248 2016.786)" class="color6e88e5 svgShape"></rect><rect width="3.49" height="5.24" x="2679.57" y="1993.13" fill="#6e88e5" transform="rotate(-9.42 2681.233 1995.696)" class="color6e88e5 svgShape"></rect><rect width="3.49" height="5.24" x="2686.23" y="2034.54" fill="#6e88e5" transform="rotate(-8.9 2687.573 2036.895)" class="color6e88e5 svgShape"></rect><rect width="3.49" height="5.24" x="2687.83" y="2044.9" fill="#6e88e5" transform="rotate(-8.78 2688.626 2046.87)" class="color6e88e5 svgShape"></rect><path fill="#6e88e5" d="M2654.48 1838.05l-3.42.68c.33 1.67.67 3.39 1 5.14l3.42-.67zM2718 2263.24l-3.49.3c.15 1.74.3 3.48.44 5.22l3.48-.29C2718.28 2266.73 2718.13 2265 2718 2263.24zM2721.12 2305.1l-3.48.22c.11 1.75.22 3.49.32 5.23l3.49-.21C2721.34 2308.59 2721.24 2306.85 2721.12 2305.1zM2721.76 2315.57l-3.49.21c.1 1.74.2 3.49.3 5.22l3.49-.19C2722 2319.07 2721.86 2317.33 2721.76 2315.57zM2720.42 2294.63l-3.48.24q.18 2.63.36 5.22l3.48-.23C2720.67 2298.12 2720.55 2296.38 2720.42 2294.63zM2722.83 2336.54l-3.49.15c.08 1.75.16 3.5.23 5.23l3.49-.14C2723 2340 2722.91 2338.29 2722.83 2336.54zM2723.26 2347l-3.49.13.18 5.23 3.49-.12zM2719.67 2284.16l-3.49.26.39 5.23 3.48-.26C2719.93 2287.65 2719.8 2285.91 2719.67 2284.16zM2722.33 2326.05l-3.49.18c.09 1.75.18 3.49.26 5.23l3.49-.16C2722.51 2329.55 2722.42 2327.81 2722.33 2326.05zM2652.42 1827.75l-3.43.69c.34 1.66.68 3.37 1 5.14l3.42-.68C2653.1 1831.12 2652.75 1829.41 2652.42 1827.75zM2714 2221.46l-3.47.36c.18 1.74.35 3.47.53 5.21l3.47-.35C2714.4 2224.94 2714.22 2223.2 2714 2221.46zM2715.1 2231.9l-3.48.34.51 5.22 3.48-.34zM2713 2211l-3.47.37c.18 1.74.36 3.47.55 5.21l3.47-.37C2713.32 2214.51 2713.14 2212.77 2713 2211z" class="color6e88e5 svgShape"></path><rect width="3.49" height="5.24" x="2708.62" y="2200.78" fill="#6e88e5" transform="rotate(-6.3 2710.044 2203.195)" class="color6e88e5 svgShape"></rect><path fill="#6e88e5" d="M2718.85 2273.7l-3.48.28c.14 1.74.28 3.48.41 5.22l3.49-.27zM2720.37 2368.09l.09 5.23 3.49-.06-.09-5.24zM2717.07 2252.79l-3.48.31c.16 1.75.31 3.48.46 5.22l3.48-.3C2717.38 2256.28 2717.23 2254.53 2717.07 2252.79zM2716.1 2242.34l-3.47.33.48 5.22 3.48-.32C2716.43 2245.83 2716.27 2244.09 2716.1 2242.34z" class="color6e88e5 svgShape"></path><rect width="3.49" height="5.24" x="2702.44" y="2148.64" fill="#6e88e5" transform="rotate(-7.26 2705.698 2152.31)" class="color6e88e5 svgShape"></rect><path fill="#6e88e5" d="M2706.9,2158.85l-3.46.43c.21,1.74.43,3.47.64,5.21l3.47-.42C2707.34,2162.33,2707.12,2160.59,2706.9,2158.85Z" class="color6e88e5 svgShape"></path><rect width="3.49" height="5.26" x="2705.02" y="2169.47" fill="#6e88e5" transform="rotate(-6.91 2705.26 2171.057)" class="color6e88e5 svgShape"></rect><path fill="#6e88e5" d="M2648.18 1807.15l-3.42.72c.33 1.55.69 3.27 1.08 5.14l3.42-.71Q2648.68 1809.48 2648.18 1807.15zM2645 1795.65l-.84 1.65-1.59.48c0 .06.18.65 1.11 5l3.42-.74C2645.79 1796.06 2645.79 1796.06 2645 1795.65z" class="color6e88e5 svgShape"></path><rect width="3.49" height="5.25" x="2647.39" y="1817.75" fill="#6e88e5" transform="rotate(-11.61 2649.885 1820.811)" class="color6e88e5 svgShape"></rect><path fill="#6e88e5" d="M2709.43 2179.73l-3.47.41c.21 1.74.41 3.48.61 5.23l3.47-.41C2709.84 2183.22 2709.64 2181.48 2709.43 2179.73zM2720.59 2389v.55c0 1.57 0 3.13 0 4.68l3.49 0c0-1.56 0-3.12 0-4.7V2389z" class="color6e88e5 svgShape"></path><rect width="1.48" height="3.49" x="2721.03" y="2419.45" fill="#6e88e5" transform="rotate(-87.82 2721.837 2421.193)" class="color6e88e5 svgShape"></rect><path fill="#6e88e5" d="M2720.23 2415.16l3.49.11c.05-1.74.1-3.49.14-5.26l-3.5-.07C2720.32 2411.69 2720.28 2413.43 2720.23 2415.16zM2720.11 2357.62c0 1.75.1 3.49.14 5.23l3.49-.08c0-1.74-.09-3.49-.14-5.25zM2720.47 2404.71l3.49.05c0-1.74.05-3.49.07-5.25l-3.49 0C2720.52 2401.23 2720.49 2403 2720.47 2404.71zM2710.64 2190.17l-3.47.4c.2 1.74.4 3.47.59 5.21l3.47-.39C2711 2193.65 2710.84 2191.91 2710.64 2190.17zM2724.06 2383.76c0-1.74 0-3.49 0-5.25l-3.49 0c0 1.75 0 3.5 0 5.23z" class="color6e88e5 svgShape"></path><path fill="#c4572f" d="M1996.55 2434.56c1.7 0 52.72-11.94 86.28 54 0 0 39.52-12.77 49.89-27.4 0 0-18-58.92-83.35-57.79C2010.75 2406.16 1996.55 2434.56 1996.55 2434.56zM2230.54 2359.59c-1.66-2.37-58.38 19.22-72.92 91.11l43.17-16.67s3.11-35.78 32.33-51.14C2233.12 2382.89 2238.49 2371 2230.54 2359.59z" class="colorc4572f svgShape"></path><path fill="#e0786e" d="M2653.34 1709c-.34-.06-33.94-6.27-48-8.51-14.2-2.27-52.74-16.08-54.37-16.67l1.18-3.28c.4.14 39.87 14.28 53.74 16.5 14.06 2.25 47.7 8.46 48 8.53zM2653.61 1732.63c-.21 0-20.74-.6-38.6-2.85-18.08-2.29-43.69-15-44.77-15.57l1.56-3.12c.26.13 26.17 13 43.64 15.22 17.7 2.24 38.06 2.82 38.27 2.83zM2641.1 1757.24c-20.08 0-42.49-8.65-43.51-9l1.27-3.26c.26.11 26.64 10.29 47 8.63 16-1.29 18.23-1.58 18.54-1.64a1.73 1.73 0 00-1.33 1.85l1.67-.15v-1.77l1.82 1.69c0 1.08-.64 1.72-2 1.89l-2.46.26c-3.13.3-8.49.75-15.92 1.36C2644.48 1757.18 2642.8 1757.24 2641.1 1757.24z" class="colore0786e svgShape"></path><path fill="#e0a296" d="M2264.34,1569.12s-9.57-84.53,23-111.79,153.73-141.61,153.73-141.61-3.15-18.18,12.06-22.72c0,0,72.73-74.64,87.89-76.91a113.31,113.31,0,0,1,30,0s-10.32-10.79,13.16-1,28.16,26.44,28.16,26.44,16.56,8,7.83,16.88c0,0,25.35,4.32,20.8,14.92s-25.74,12.88-47.7,21.21-46.2,49.22-103.75,43.92c0,0-40.89,65.88-61.34,118.89S2326.17,1618.82,2264.34,1569.12Z" class="colore0a296 svgShape"></path><path fill="#e0a296" d="M2620.17,1258.39s-12.23,22.12-21.32,27.23-42,5.68-43.45-2.56,29.34-12.24,29.34-12.24l8.43-25.24" class="colore0a296 svgShape"></path><path fill="#c75555" d="M2620.17,1258.39a135.73,135.73,0,0,1-7.05,12.48c-1.28,2-2.61,4-4.06,5.94a59.68,59.68,0,0,1-4.62,5.6,23,23,0,0,1-5.87,4.67,30.46,30.46,0,0,1-7.08,2.24,77.37,77.37,0,0,1-14.46,1.49,61.44,61.44,0,0,1-14.56-1.35,25.1,25.1,0,0,1-3.62-1.19,10.71,10.71,0,0,1-3.47-2.27,5.36,5.36,0,0,1-1.25-2.08c-.06-.21-.12-.42-.17-.63l0-.64a4.33,4.33,0,0,1,.14-1.29,6.92,6.92,0,0,1,2.6-3.59,25.23,25.23,0,0,1,6.75-3.41,71.27,71.27,0,0,1,7-2,125.08,125.08,0,0,1,14.22-2.47l-.81.67c1.52-4.17,3-8.34,4.59-12.5s3.14-8.3,4.77-12.43c-1.18,4.28-2.39,8.55-3.66,12.8s-2.54,8.51-3.83,12.75l-.17.56-.64.11a139.12,139.12,0,0,0-13.84,3c-2.26.62-4.51,1.3-6.67,2.13a23.86,23.86,0,0,0-5.91,3.12,4.1,4.1,0,0,0-1.57,2,2,2,0,0,0,.63,1.9,7.9,7.9,0,0,0,2.51,1.56,21.22,21.22,0,0,0,3.16,1,60.5,60.5,0,0,0,13.83,1.36,81.57,81.57,0,0,0,14-1.14,31.15,31.15,0,0,0,6.58-1.83,21,21,0,0,0,5.41-4,88,88,0,0,0,9.13-10.78Q2616.32,1264.42,2620.17,1258.39Z" class="colorc75555 svgShape"></path><path fill="#e0a296" d="M2612.34,1241.51s-6.11,22-22.29,27.92-33.74-4.12-36.64-8.9" class="colore0a296 svgShape"></path><path fill="#c75555" d="M2612.34,1241.51a48.78,48.78,0,0,1-7.65,17.75,34.28,34.28,0,0,1-6.72,7.27,17.42,17.42,0,0,1-2,1.49l-2.16,1.32c-.75.39-1.54.71-2.3,1.07a15,15,0,0,1-2.37.87,32.11,32.11,0,0,1-4.9,1.11,33.58,33.58,0,0,1-5,.26,35.65,35.65,0,0,1-9.76-1.59,39.54,39.54,0,0,1-8.95-4c-.7-.41-1.37-.87-2-1.35a21.5,21.5,0,0,1-1.92-1.5,13.55,13.55,0,0,1-3.16-3.68l.81.88.91.77a21.62,21.62,0,0,0,1.93,1.36c.69.4,1.34.84,2.05,1.18s1.39.74,2.11,1a47,47,0,0,0,8.85,3,38.11,38.11,0,0,0,9.18,1,36.52,36.52,0,0,0,4.56-.32,30.29,30.29,0,0,0,4.42-1.07,12,12,0,0,0,2.13-.75c.69-.31,1.39-.58,2.06-.92l2-1.15a6.43,6.43,0,0,0,.94-.63l.92-.68a35.84,35.84,0,0,0,6.59-6.44A68.73,68.73,0,0,0,2612.34,1241.51Z" class="colorc75555 svgShape"></path><path fill="#e0a296" d="M2596.38,1221.77s13.83,12.45,8.43,22.1a38.88,38.88,0,0,1-26.12,19c-10.79,2-38.34-.28-34.08-10.22" class="colore0a296 svgShape"></path><path fill="#c75555" d="M2596.38,1221.77a35.28,35.28,0,0,1,8.19,9.33,19.36,19.36,0,0,1,2.33,6,11.34,11.34,0,0,1-.72,6.66,39,39,0,0,1-17.95,17.56,35.51,35.51,0,0,1-6,2.25,31.45,31.45,0,0,1-6.3,1.14,66.42,66.42,0,0,1-12.54-.24,50.45,50.45,0,0,1-12.22-2.71,16.4,16.4,0,0,1-5.47-3.22,5.55,5.55,0,0,1-1.6-2.79,4.85,4.85,0,0,1,.51-3.06,4.6,4.6,0,0,0-.07,3,4.94,4.94,0,0,0,1.71,2.28,15.84,15.84,0,0,0,5.38,2.44,57.11,57.11,0,0,0,11.95,1.78,75.85,75.85,0,0,0,12.07-.25,31.29,31.29,0,0,0,5.78-1.14,33.64,33.64,0,0,0,5.5-2.13,34.51,34.51,0,0,0,5.14-2.95,38.11,38.11,0,0,0,4.63-3.7,36.28,36.28,0,0,0,4.06-4.34c.63-.76,1.19-1.58,1.77-2.39.29-.4.54-.83.81-1.25l.4-.62c.12-.21.22-.41.33-.61a9.4,9.4,0,0,0,.89-5.37,17.87,17.87,0,0,0-1.68-5.6A42,42,0,0,0,2596.38,1221.77Z" class="colorc75555 svgShape"></path><path fill="#e0a296" d="M2565.36,1215.47s21,6.82,21.28,14.77-24.42,26.13-24.42,26.13-32.09.57-30.67-11.36,24.42-8.78,24.42-8.78l6-10" class="colore0a296 svgShape"></path><path fill="#c75555" d="M2565.36,1215.47a66,66,0,0,1,14.74,6,27.67,27.67,0,0,1,3.36,2.29,14.72,14.72,0,0,1,2.92,3,6.63,6.63,0,0,1,1.23,4.39,11.79,11.79,0,0,1-1.57,4.07c-2.9,4.74-6.77,8.47-10.66,12.11s-8,7-12.29,10.21l-.37.28h-.48a89.37,89.37,0,0,1-16.24-1.26,41.12,41.12,0,0,1-8-2.15,19.88,19.88,0,0,1-3.82-2,9.75,9.75,0,0,1-3.14-3.38,7.28,7.28,0,0,1-.65-4.72,9.1,9.1,0,0,1,1.92-4.15,13.92,13.92,0,0,1,7.47-4.22,35,35,0,0,1,8.17-.89,52.32,52.32,0,0,1,8.1.62l-.52.26q3.17-4.87,6.41-9.69-2.7,5.14-5.5,10.23l-.16.29-.37,0a58,58,0,0,0-7.91-.07,33.78,33.78,0,0,0-7.68,1.27,11.78,11.78,0,0,0-6.15,3.72,6.75,6.75,0,0,0-1.28,3.1,4.58,4.58,0,0,0,.48,3c1,1.84,3.32,3.11,5.66,4a41.84,41.84,0,0,0,7.48,1.91,100.36,100.36,0,0,0,15.69,1.2l-.85.28c4.19-3.11,8.28-6.42,12.22-9.85,2-1.72,3.87-3.5,5.68-5.36a38.78,38.78,0,0,0,4.91-5.88,9.86,9.86,0,0,0,1.43-3.21,4.64,4.64,0,0,0-.74-3.11,19.17,19.17,0,0,0-5.47-5.15A78.6,78.6,0,0,0,2565.36,1215.47Z" class="colorc75555 svgShape"></path><path fill="#cc645a" d="M2481,1311.18a161,161,0,0,0,19.91-9.25c3.16-1.79,6.31-3.6,9.29-5.65a98.29,98.29,0,0,0,8.69-6.46,78.34,78.34,0,0,0,7.86-7.38,68.75,68.75,0,0,0,16.07-28,50.89,50.89,0,0,1-7,21.1,59.34,59.34,0,0,1-6.62,9.13,75.8,75.8,0,0,1-8.08,7.85,94.37,94.37,0,0,1-9.13,6.55,92.55,92.55,0,0,1-9.86,5.3A85.11,85.11,0,0,1,2481,1311.18Z" class="colorcc645a svgShape"></path><path fill="#4d578c" d="M2436.24,1320.26c1.13.38,27.55,29.59,45.73,30.73l-8.24,14.19s-22.78,12.63-55-30.91Z" class="color4d578c svgShape"></path><circle cx="2454.55" cy="1349.49" r="13.68" fill="#5c6ab8" class="color5c6ab8 svgShape"></circle><path fill="#9c422b" d="M2594.78 1085.51a23.9 23.9 0 012.91-3.68c1.06-1.15 2.17-2.25 3.31-3.33a73.18 73.18 0 017.31-5.94 70.49 70.49 0 018.07-4.94 65.05 65.05 0 018.74-3.77 58.88 58.88 0 019.3-2.24 45 45 0 019.57-.31 38.51 38.51 0 019.34 1.87 38 38 0 018.47 4.08 59.07 59.07 0 00-8.9-2.42 21.49 21.49 0 00-2.25-.36c-.75-.1-1.49-.23-2.25-.26l-2.26-.16-2.25 0a56 56 0 00-17.65 3.14 69.87 69.87 0 00-8.39 3.41c-2.76 1.26-5.41 2.75-8.06 4.27s-5.2 3.21-7.71 5c-1.28.86-2.5 1.79-3.74 2.71-.62.47-1.22 1-1.83 1.43A18.11 18.11 0 002594.78 1085.51zM2551.24 1107.28a51.58 51.58 0 00-11-.81 31.46 31.46 0 00-10.3 2 27.94 27.94 0 00-8.76 5.65 54.9 54.9 0 00-7.06 8.45 26.27 26.27 0 015-10.31 23.19 23.19 0 019.5-7 25.14 25.14 0 0111.67-1.55A25.89 25.89 0 012551.24 1107.28zM2560.32 1107.28a65.45 65.45 0 0111.08 6.12 58.49 58.49 0 019.76 8.27 33.45 33.45 0 017.08 11A23.45 23.45 0 012589 1146c-1 4.39-3.11 8.28-5 11.94a21.36 21.36 0 00-2.2 5.38 5.44 5.44 0 001.07 4.72 19.28 19.28 0 004.53 3.68c1.72 1.15 3.47 2.25 5.29 3.25a49.5 49.5 0 005.56 2.75 30.88 30.88 0 002.92 1.06 15.18 15.18 0 003.06.66 19.74 19.74 0 01-6.29-.8 45.13 45.13 0 01-6-2.13c-2-.84-3.85-1.81-5.72-2.83a20 20 0 01-5.42-3.89 8.14 8.14 0 01-1.85-3.26 8.8 8.8 0 01-.16-3.74 16.39 16.39 0 01.95-3.34c.41-1 .86-2 1.31-3 1.87-3.8 3.75-7.39 4.57-11.23a20.46 20.46 0 00-.5-11.45 33.18 33.18 0 00-6-10.29 69.08 69.08 0 00-8.74-8.7A101.92 101.92 0 002560.32 1107.28z" class="color9c422b svgShape"></path><path fill="#6e2e1e" d="M2617.5 1117.7a55 55 0 0011.06.38 35.51 35.51 0 0010.38-2.24 31.46 31.46 0 009-5.48 56.35 56.35 0 007.43-8.19 26.75 26.75 0 01-5.49 10.13 25.13 25.13 0 01-9.66 6.8 27.41 27.41 0 01-11.65 1.72A26.56 26.56 0 012617.5 1117.7zM2527.76 1146.47a77.82 77.82 0 0011.57 1 44.72 44.72 0 0011.13-1.27 32 32 0 0010.09-4.45A44.24 44.24 0 002569 1134a24.71 24.71 0 01-6.8 9.9 26.09 26.09 0 01-10.91 5.67 32.32 32.32 0 01-12.18.61A31.85 31.85 0 012527.76 1146.47z" class="color6e2e1e svgShape"></path><ellipse cx="2629.51" cy="1113.37" fill="#6e2e1e" rx="12.01" ry="6.09" transform="rotate(-10.86 2629.895 1113.477)" class="color6e2e1e svgShape"></ellipse><ellipse cx="2539.61" cy="1143.35" fill="#6e2e1e" rx="12.01" ry="6.09" transform="rotate(-10.86 2540 1143.465)" class="color6e2e1e svgShape"></ellipse><path fill="#cc3d3d" d="M2600.67,1202.45c2,2,9.45,7.59,30.27,4.15,24.16-3.52,29.52-20.51,30.6-25.68C2645.2,1195.76,2622.37,1202.93,2600.67,1202.45Z" class="colorcc3d3d svgShape"></path><path fill="#ad293c" d="M2636.43,1184c-11.36-.38-16.26,9.84-16.26,9.84-13.23-4.92-20.09,8-20.09,8a5,5,0,0,0,.59.7c21.7.48,44.53-6.69,60.87-21.53.2-1,.26-1.5.26-1.5S2647.79,1184.34,2636.43,1184Z" class="colorad293c svgShape"></path><path fill="#d47b0f" d="M2555.06 2646.7c-1.86 2 66.22-10.33 95 45.71l38.76-15.24s9.37-70.33-73-65.79C2615.82 2611.38 2585.35 2614.14 2555.06 2646.7zM2758.2 2581.35s-36 8.61-42.92 85.58l18.83-5.57s1.3-49.36 30.19-62.92z" class="colord47b0f svgShape"></path><path fill="#4d578c" d="M1825.41,1449c-.38,1.13-53.76,127.28-44.68,137.85s70.43,7.92,70.43,7.92l22-29.54s-56,.76-56-5.3,25.61-72.69,25.61-72.69Z" class="color4d578c svgShape"></path><rect width="158.17" height="163.28" x="2049.97" y="1433" fill="#c7f0ff" rx="21.29" class="colorc7f0ff svgShape"></rect><path fill="#e8c441" d="M2133,1402.8l46.53-71.64a6.39,6.39,0,0,1,5.26-2.75h9.53a6.41,6.41,0,0,1,5.41,9.85l-43.7,68.75c-1,1.49-.3,3-2,3.33-3.32.63-7.66,2.29-14.17,2S2125.27,1414.24,2133,1402.8Z" class="colore8c441 svgShape"></path><rect width="105.35" height="18.46" x="2076.38" y="1419.65" fill="#8ecfe8" rx="1.69" class="color8ecfe8 svgShape"></rect><rect width="135.17" height="37.77" x="2061.47" y="1389.84" fill="#c7f0ff" rx="13.13" class="colorc7f0ff svgShape"></rect><rect width="123.81" height="114.16" x="2067.83" y="1465.66" fill="#ff879b" rx="5.79" class="colorff879b svgShape"></rect><path fill="#db586e" d="M2190.63,1467.93c0,4.7-27.72,8.52-61.91,8.52s-61.23-3.82-61.23-8.52,27-8.52,61.23-8.52S2190.63,1463.22,2190.63,1467.93Z" class="colordb586e svgShape"></path><path fill="#c7f0ff" d="M2077.94,1400.36s3.78,8.84,36.07,11.64c33.61,2.92,63.13-3.68,66.16-11.64" class="colorc7f0ff svgShape"></path><rect width="6.82" height="50.69" x="2173.32" y="1479.71" fill="#ffedf0" rx=".75" class="colorffedf0 svgShape"></rect><rect width="11.22" height="11.22" x="2171.12" y="1536.68" fill="#ffedf0" rx="1.23" class="colorffedf0 svgShape"></rect><path fill="#eab8f2" d="M1800.42,1342.6l42,259.74s2.65,3.41,9.84,2.65l148.8-47a13.32,13.32,0,0,0,7.2-13.63l-34.46-207.49s-2.65-8.7-7.95-8.51l-156.75,7.38S1800.38,1336.16,1800.42,1342.6Z" class="coloreab8f2 svgShape"></path><polygon fill="#9a8ad4" points="1812.54 1345.63 1851.16 1594.77 2000.34 1547.9 1964.37 1336.54 1812.54 1345.63" class="color9a8ad4 svgShape"></polygon><path fill="#4d578c" d="M1874 1365.09c-.55-3.41-1.23-7.5-1.53-10.57h-.1c-.53 3-1.21 6.15-2.08 9.67l-3 12.4-2.4.27-5.26-11.27c-1.55-3.33-2.88-6.4-3.9-9.24h-.07c.26 3.07.54 7.21.72 10.91l.5 10.61-3 .34-1-24.76 4.05-.45 5.49 11.43c1.36 2.91 2.49 5.52 3.39 8h.11c.35-2.55.93-5.34 1.68-8.56l3.07-12.37 4-.44 4.23 24.4-3.1.34zM1884.82 1366.49c.55 4.33 3.52 5.81 6.72 5.45a11.71 11.71 0 004.79-1.44l.8 2.23a14.33 14.33 0 01-5.75 1.74c-5.43.6-9.07-2.62-9.65-7.94s2.09-9.86 7.22-10.42c5.76-.64 7.86 4.26 8.21 7.51a12.81 12.81 0 01.06 1.5zm9.15-3.34c-.19-2-1.41-5.11-5-4.72-3.25.36-4.34 3.5-4.35 5.75zM1900.8 1360c-.2-1.82-.4-3.31-.67-4.75l2.84-.32.5 2.9h.08a6.53 6.53 0 015.46-4c2.45-.27 6.4.78 7.06 6.83l1.16 10.53-3.21.36-1.12-10.17c-.31-2.85-1.62-5.1-4.65-4.77a4.58 4.58 0 00-3.94 3.75 4.71 4.71 0 000 1.52l1.16 10.61-3.21.35zM1936.69 1364.26c.2 1.82.41 3.42.67 4.79l-2.84.32-.5-2.86h-.08a6.67 6.67 0 01-5.47 3.93c-2.77.3-6.25-.87-6.93-7.07l-1.13-10.31 3.2-.35 1.08 9.77c.36 3.35 1.63 5.5 4.55 5.18a4.68 4.68 0 003.91-3.38 4.86 4.86 0 00.11-1.68l-1.19-10.82 3.21-.36z" class="color4d578c svgShape"></path><path fill="#e8d89e" d="M1838.13 1403.65l-.5-1.68c1.15-.38 103.15-14.6 123.59-17.45l.24 1.73C1919.62 1392.08 1840 1403.22 1838.13 1403.65zM1842.93 1429.2l-.52-1.67c1.14-.38 102-18.27 122.18-21.86l.31 1.72C1923.47 1414.74 1844.67 1428.76 1842.93 1429.2zM1847.22 1460.25l-.53-1.67c1.14-.38 108.3-23.77 120.52-26.43l.37 1.7C1926.63 1442.79 1848.78 1459.8 1847.22 1460.25zM1851.48 1491.15l-.54-1.66c1.15-.39 115.53-29.68 120.4-30.93l.44 1.7C1970.59 1460.56 1853.18 1490.63 1851.48 1491.15z" class="colore8d89e svgShape"></path><rect width="376.78" height="373.08" x="2052.77" y="830.81" fill="#eba067" rx="9.43" class="coloreba067 svgShape"></rect><rect width="376.78" height="373.08" x="2044.91" y="820.33" fill="#ffd592" rx="9.43" class="colorffd592 svgShape"></rect><circle cx="2225.43" cy="860.42" r="13.82" fill="#8ecfe8" class="color8ecfe8 svgShape"></circle><path fill="#c7f0ff" d="M2324.45,922v-.41H2130.67a33,33,0,0,1-.45-5.54c0-32.13,43.57-58.16,97.37-58.16S2325,883.9,2325,916A37,37,0,0,1,2324.45,922Z" class="colorc7f0ff svgShape"></path><rect width="274.88" height="87.08" x="2096.99" y="1075.91" fill="#e8942e" rx="7.21" class="colore8942e svgShape"></rect><path fill="#232a52" d="M2422.82,961.32c0-.37-98.38,6.44-98.38,6.44l4.17,53.39,94.21-4.55Z" class="color232a52 svgShape"></path><path fill="#ed7676" d="M2329.74,984.8c-1.51,0-12.12-.38-12.12-.38s-.75-17.42-6.43-32.56,4.16-29.16-7.2-25.37-8.7,15.9-9.08,22.34-5.3,18.93-5.3,18.93-31.43-9.09-46.57-15.52-36-29.16-46.58-23.48,45.44,45.38,45.44,45.38-61.34-48.41-73.83-42.73,33.32,31.43,45.43,40.14,35.59,29.29,50.74,35.47,71.94,23.21,71.94,23.21Z" class="colored7676 svgShape"></path><polygon fill="#ffece0" points="2373.63 964.09 2324.44 967.76 2327.85 1047.27 2373.63 1047.27 2373.63 964.09" class="colorffece0 svgShape"></polygon><polygon fill="#8ecfe8" points="2318.76 935.58 2129.83 937.47 2110.89 915.51 2336.18 915.51 2318.76 935.58" class="color8ecfe8 svgShape"></polygon><path fill="#ffffff" d="M2293.16,890.19a2.2,2.2,0,0,1-1.43-.51c-18.83-15.22-37.75-18.86-40.69-18.94a2.29,2.29,0,0,1-2.23-2.31,2.25,2.25,0,0,1,2.24-2.24c.19,0,21.07,1.81,43.53,20a2.27,2.27,0,0,1-1.42,4Z" class="colorfff svgShape"></path><path fill="#bf590b" d="M2143.91 1118.27c0-13.09 7.32-20.85 17.93-20.85s17.87 7.76 17.87 20.85-7.32 21.22-17.87 21.22S2143.91 1131.43 2143.91 1118.27zm28.42 0c0-9.06-4.16-14.58-10.49-14.58s-10.55 5.52-10.55 14.58 4.16 15 10.55 15S2172.33 1127.39 2172.33 1118.27zM2209.8 1138.75l-8.75-15.89h-6.14v15.89h-7.2v-40.58h13.65c8.44 0 15 3 15 12 0 6.21-3.23 9.93-8.13 11.61l9.68 16.94zm-14.89-21.59h5.71c5.58 0 8.56-2.36 8.56-7s-3-6.26-8.56-6.26h-5.71zM2224.69 1098.17h10.8c12.41 0 19.79 6.7 19.79 20.1s-7.38 20.48-19.42 20.48h-11.17zm10.3 34.75c8.19 0 12.91-4.66 12.91-14.65S2243.18 1104 2235 1104h-3.1v28.92zM2263.34 1098.17h24.39v6.08h-17.19v10.36h14.58v6.08h-14.58v12h17.81v6.08h-25zM2318.56 1138.75l-8.75-15.89h-6.14v15.89h-7.19v-40.58h13.64c8.44 0 15 3 15 12 0 6.21-3.23 9.93-8.13 11.61l9.68 16.94zm-14.89-21.59h5.71c5.58 0 8.56-2.36 8.56-7s-3-6.26-8.56-6.26h-5.71z" class="colorbf590b svgShape"></path><ellipse cx="2450.37" cy="1094.59" fill="#ffd592" rx="27.33" ry="16.28" transform="rotate(-82.78 2450.511 1094.54)" class="colorffd592 svgShape"></ellipse><ellipse cx="2481" cy="1100.28" fill="#ffd592" rx="14.05" ry="8.37" transform="rotate(-82.78 2481.143 1100.238)" class="colorffd592 svgShape"></ellipse><path fill="#f57f25" d="M2703.11,936a134.18,134.18,0,0,0-71.53-51.25,135.68,135.68,0,0,0-25.15-5c-7.13-.71-15-1.46-22.22.11l-2.32-.41c.27-1.31-1.67-2.29-2.4-.94A202.87,202.87,0,0,0,2559.26,933c-3.84,17.9-7.18,38.53-1,56.24.55,1.58,3.08.9,2.52-.7-6.19-17.69-2.66-38.54,1.31-56.38a199.85,199.85,0,0,1,18-49.21,1.08,1.08,0,0,0,1.36.45l.25-.08c34.36,24.13,45.82,66.95,49.52,106.67.16,1.67,2.78,1.68,2.62,0-3.71-39.77-15-82.15-48.32-107.13,51.74,10.73,90.58,53.39,104.29,103.65a179.92,179.92,0,0,1,6.17,47.31,1.31,1.31,0,0,0,2.62,0c0-55.87-25.74-111.72-75.65-139.71a128.74,128.74,0,0,0-30.92-12.43,109.47,109.47,0,0,1,12.25.56,129,129,0,0,1,21.82,3.74,134.74,134.74,0,0,1,40,17.75,130.57,130.57,0,0,1,52.46,69.79,133.19,133.19,0,0,1,5.81,49.66c-.13,1.68,2.5,1.68,2.62,0A136.25,136.25,0,0,0,2703.11,936Z" class="colorf57f25 svgShape"></path><path fill="#ad5237" d="M2799.24,1672.77q8.25-4.27,16.54-8.46l16.64-8.29c11.11-5.47,22.23-11,33.43-16.25q33.57-16,67.57-31c5.69-2.46,11.34-5,17.06-7.41l17.13-7.24c5.72-2.4,11.48-4.67,17.23-7,2.88-1.15,5.75-2.33,8.64-3.46l8.69-3.31c11.56-4.51,23.26-8.65,35-12.67l17.76-5.64,18-4.86-1,2.59-29-42.87c-9.69-14.28-19.25-28.65-28.87-43l-14.42-21.5-7.21-10.75-7.16-10.79c-9.54-14.38-19.12-28.74-28.58-43.18,10,14.08,19.85,28.25,29.76,42.38l7.42,10.6,7.38,10.64,14.74,21.28c9.82,14.19,19.7,28.34,29.46,42.57l29.3,42.69,1.34,2-2.34.64-17.84,4.87-17.64,5.64c-11.68,4-23.36,8.09-34.89,12.57q-34.68,13.2-68.78,28-34.16,14.57-68,30c-11.25,5.17-22.54,10.26-33.77,15.49S2810.43,1667.46,2799.24,1672.77Z" class="colorad5237 svgShape"></path></g></svg>