<svg id="SvgjsSvg1027" width="256" height="256" xmlns="http://www.w3.org/2000/svg" version="1.1"
  xmlns:xlink="http://www.w3.org/1999/xlink" xmlns:svgjs="http://svgjs.com/svgjs">
  <defs id="SvgjsDefs1028"></defs>
  <g id="SvgjsG1029"><svg xmlns="http://www.w3.org/2000/svg" viewBox="0 0 24 24" width="256"
      height="256">
      <g fill="none" stroke="currentColor" stroke-linecap="round" stroke-linejoin="round"
        stroke-miterlimit="10" class="colorStroke303C42 svgStroke">
        <path
          d="M.5.5h23v2H.5zM14.5 2.5l1.355 7.453A8.493 8.493 0 0019.5 15.5l-4.003 7.982.003.018c.876 0 .876-1 1.752-1 .877 0 .877 1 1.753 1 .875 0 .875-1 1.75-1 .872 0 .872 1 1.745 1v-21M9.5 2.5L8.145 9.953A8.493 8.493 0 014.5 15.5l4 8c-.873 0-.873-1-1.746-1-.874 0-.874 1-1.75 1-.875 0-.875-1-1.752-1s-.876 1-1.752 1v-21M19.5 15.5s3 0 3-1M4.5 15.5s-3 0-3-1"
          fill="none" class="color000 svgShape"></path>
      </g>
    </svg></g>
</svg>