<?xml version="1.0" standalone="no"?>
<!DOCTYPE svg PUBLIC "-//W3C//DTD SVG 1.1//EN" "http://www.w3.org/Graphics/SVG/1.1/DTD/svg11.dtd">
<svg t="1711765593753" class="icon" viewBox="0 0 1024 1024" version="1.1"
  xmlns="http://www.w3.org/2000/svg" p-id="14867" xmlns:xlink="http://www.w3.org/1999/xlink"
  width="200" height="200">
  <path
    d="M921.5 509.9l-48.8-62.3-78.5-154.8c-4.4-8.8-13.5-14.3-23.4-14.3H659.3v-25.9c0-14.3-11.7-25.9-26.2-25.9H197.3c-14.4 0-26.2 11.6-26.2 25.9 0 14.3 11.7 25.9 26.2 25.9H607v181.6c0 14.3 11.7 25.9 26.2 25.9h203.4l38.1 48.7v133.8h-49.3c-11.3-45.1-52.6-78.7-101.5-78.7-49 0-90.2 33.5-101.5 78.7H467.9c-11.3-45.1-52.6-78.7-101.5-78.7-49 0-90.2 33.5-101.5 78.7h-67.6c-14.4 0-26.2 11.6-26.2 25.9 0 14.3 11.7 25.9 26.2 25.9h68.1c11.9 44.3 52.7 76.9 101.1 76.9 48.3 0 89.1-32.7 101.1-76.9h155.3c11.9 44.3 52.7 76.9 101.1 76.9 48.4 0 89.1-32.7 101.1-76.9H901c14.4 0 26.2-11.6 26.2-25.9V525.8c-0.2-5.7-2.1-11.3-5.7-15.9z m-262.2-75.7V330.4h95.5l52.6 103.7H659.3zM366.4 745.4c-28.8 0-52.3-23.3-52.3-51.9 0-28.6 23.5-51.9 52.3-51.9 28.8 0 52.3 23.3 52.3 51.9 0 28.7-23.4 51.9-52.3 51.9z m357.5 0c-28.8 0-52.3-23.3-52.3-51.9 0-28.6 23.5-51.9 52.3-51.9 28.9 0 52.3 23.3 52.3 51.9 0 28.7-23.5 51.9-52.3 51.9zM312.3 563c0-14.3-11.7-25.9-26.2-25.9H165.9c-14.4 0-26.2 11.6-26.2 25.9 0 14.3 11.7 25.9 26.2 25.9h120.3c14.4 0 26.1-11.6 26.1-25.9z m60.2-102c0-14.3-11.7-25.9-26.2-25.9H123.2c-14.4 0-26.2 11.6-26.2 25.9 0 14.3 11.7 25.9 26.2 25.9h223.2c14.4 0 26.1-11.6 26.1-25.9z m-206.6-76.1h223.2c14.4 0 26.2-11.6 26.2-25.9 0-14.3-11.7-25.9-26.2-25.9H165.9c-14.4 0-26.2 11.6-26.2 25.9 0 14.3 11.7 25.9 26.2 25.9z"
    fill="currentColor" p-id="14868"></path>
</svg>