<?xml version="1.0" standalone="no"?><!DOCTYPE svg PUBLIC "-//W3C//DTD SVG 1.1//EN" "http://www.w3.org/Graphics/SVG/1.1/DTD/svg11.dtd"><svg t="1711696670558" class="icon" viewBox="0 0 1030 1024" version="1.1" xmlns="http://www.w3.org/2000/svg" p-id="11578" xmlns:xlink="http://www.w3.org/1999/xlink" width="201.171875" height="200"><path d="M359.552512 430.08c5.12 10.24 15.36 15.36 25.6 15.36 10.24 5.12 25.6 5.12 35.84 0 20.48-5.12 35.84-15.36 46.08-30.72 10.24-15.36 10.24-35.84 0-66.56v-5.12c0-5.12-5.12-15.36-10.24-25.6s-10.24-15.36-20.48-20.48c-5.12-5.12-15.36-10.24-25.6-10.24h-30.72c-15.36 5.12-25.6 10.24-35.84 20.48-5.12 10.24-10.24 20.48-10.24 30.72v10.24c0 10.24 0 25.6 5.12 40.96 5.12 15.36 10.24 30.72 20.48 40.96z m15.36-107.52c5.12-5.12 10.24-10.24 15.36-10.24 10.24 0 20.48 0 25.6 5.12 0 10.24 5.12 20.48 10.24 30.72 0 5.12 0 5.12 5.12 10.24 5.12 20.48 5.12 35.84 5.12 40.96-5.12 10.24-10.24 20.48-20.48 20.48h-15.36l-15.36-15.36c0-10.24-5.12-20.48-10.24-30.72 0-10.24-5.12-15.36-5.12-25.6v-5.12c0-10.24 0-15.36 5.12-20.48zM282.752512 506.88c10.24 0 15.36-5.12 20.48-10.24 5.12-5.12 5.12-10.24 0-15.36 0-5.12-5.12-10.24-10.24-15.36-5.12-5.12-10.24-5.12-20.48 0l-56.32 10.24c-5.12 5.12-10.24 5.12-15.36 10.24-5.12 5.12-5.12 10.24 0 15.36 0 5.12 5.12 10.24 10.24 15.36 5.12 5.12 10.24 5.12 20.48 0l51.2-10.24z m307.2-25.6c5.12 15.36 10.24 30.72 20.48 40.96 10.24 10.24 20.48 15.36 30.72 20.48 10.24 5.12 25.6 5.12 35.84 0 20.48-5.12 35.84-15.36 40.96-30.72 10.24-15.36 10.24-35.84 0-66.56-5.12-15.36-10.24-25.6-15.36-35.84-5.12-10.24-10.24-15.36-20.48-20.48-5.12-5.12-15.36-10.24-25.6-10.24h-30.72c-20.48 5.12-35.84 15.36-46.08 35.84 5.12 20.48 5.12 40.96 10.24 66.56z m40.96-61.44c0-5.12 5.12-10.24 10.24-10.24 10.24-5.12 20.48 0 25.6 5.12 5.12 5.12 10.24 20.48 15.36 35.84 5.12 20.48 5.12 35.84 5.12 40.96 0 10.24-5.12 15.36-15.36 20.48-10.24 5.12-20.48 0-25.6-5.12-5.12-5.12-10.24-20.48-15.36-40.96-5.12-10.24-5.12-20.48-5.12-30.72 0-5.12 0-10.24 5.12-15.36zM216.192512 768c-5.12 0-5.12 0 0 0H211.072512h-5.12s-5.12 0-5.12-5.12l-5.12-5.12v-5.12l-20.48-71.68H159.872512 144.512512 129.152512h-5.12-5.12-5.12H108.672512h-5.12s-5.12 0-5.12-5.12h-5.12s-5.12 0-5.12-5.12c0 0-5.12 0-5.12-5.12-5.12 0-5.12-5.12-10.24-5.12l-5.12-5.12s-5.12 0-5.12-5.12l-5.12-5.12s0-5.12-5.12-5.12l-5.12-5.12s0-5.12-5.12-5.12l-5.12-5.12s0-5.12-5.12-5.12L26.752512 614.4s0-5.12-5.12-5.12c0 0 0-5.12-5.12-10.24v-5.12c0-5.12 0-5.12-5.12-10.24v-5.12c0-5.12-5.12-10.24-5.12-15.36-20.48-81.92 10.24-148.48 76.8-179.2l-10.24-81.92c0-10.24 0-20.48 5.12-25.6 5.12-10.24 10.24-15.36 20.48-15.36l599.04-153.6h25.6l5.12 5.12 5.12 5.12v5.12l25.6 81.92H799.872512c5.12 0 10.24 0 10.24 5.12h10.24s5.12 0 5.12 5.12c0 0 5.12 0 5.12 5.12 0 0 5.12 0 5.12 5.12 0 0 5.12 0 5.12 5.12 5.12 0 5.12 5.12 10.24 5.12l5.12 5.12s5.12 0 5.12 5.12l5.12 5.12 5.12 5.12 5.12 5.12s0 5.12 5.12 5.12l5.12 5.12s0 5.12 5.12 5.12c0 0 0 5.12 5.12 5.12 0 0 0 5.12 5.12 5.12 0 0 0 5.12 5.12 5.12v5.12c0 5.12 0 5.12 5.12 10.24v5.12c0 5.12 5.12 10.24 5.12 15.36 5.12 30.72 10.24 56.32 5.12 76.8-10.24 46.08-35.84 81.92-81.92 102.4l20.48 71.68c0 10.24 0 20.48-5.12 25.6s-20.48 10.24-30.72 10.24L226.432512 768h-5.12-5.12z m245.76-174.08c0 5.12 5.12 5.12 5.12 10.24h10.24c5.12 0 10.24-5.12 10.24-15.36L569.472512 348.16l25.6-87.04c5.12-10.24 5.12-15.36 5.12-20.48 0-5.12-5.12-5.12-5.12-10.24h-10.24c-5.12 0-5.12 5.12-10.24 5.12-5.12 5.12-5.12 10.24-5.12 15.36l-30.72 97.28L467.072512 583.68c-5.12 5.12-5.12 10.24-5.12 10.24z" fill="#333333" p-id="11579"></path><path d="M912.512512 762.88v71.68c0 10.24-5.12 20.48-10.24 25.6-5.12 10.24-15.36 10.24-25.6 10.24H257.152512c-20.48 0-35.84-15.36-35.84-35.84V819.2h15.36l599.04-153.6c20.48-5.12 40.96-20.48 56.32-40.96 10.24-20.48 15.36-46.08 10.24-66.56l-10.24-30.72c20.48-15.36 35.84-35.84 51.2-61.44 51.2 20.48 81.92 71.68 81.92 143.36 5.12 87.04-40.96 143.36-112.64 153.6z" fill="#333333" p-id="11580"></path></svg>