<svg width="52" height="52" viewBox="0 0 52 52" fill="none" xmlns="http://www.w3.org/2000/svg">
  <path
    d="M19.6541 15.1625C20.3601 11.8304 22.7887 4.55048 27.3352 6.25484C30.9293 7.85814 32.5877 14.0033 33.2661 17.5805C34.4574 24.4041 34.3334 31.5492 32.4269 38.2365C31.6444 40.7418 30.6414 43.3573 28.617 45.1443C25.8866 47.4137 23.2834 45.6941 21.7229 43.0617C18.4597 37.4111 17.9712 29.1971 18.5102 22.8054C18.3663 27.9445 18.7905 33.1342 20.2942 38.0543C23.366 47.8088 28.6246 47.8486 31.5663 37.9808C33.8602 30.0087 33.8326 18.0139 30.2983 10.4277C28.7058 7.08023 25.8973 4.67911 22.8898 8.23791C21.2712 10.2332 20.3677 12.7155 19.6541 15.161V15.1625Z"
    fill="white" />
  <path
    d="M36.8474 32.3616C39.6405 31.5485 44.0354 29.9957 45.2957 27.1965C46.6233 23.7862 41.7997 21.6378 39.2332 20.7603C31.5459 18.2888 21.7914 18.2781 14.0276 20.4479C4.19038 23.3774 4.16741 28.6359 13.9541 31.72C18.8727 33.2238 24.0639 33.6479 29.203 33.504C22.8097 34.043 14.6018 33.5561 8.94667 30.2913C6.32505 28.7355 4.59006 26.1368 6.8656 23.3973C9.55001 20.3438 14.9862 19.0835 18.8742 18.4771C26.1005 17.4802 35.2624 17.8615 41.8778 21.1263C44.1212 22.2304 46.9924 24.5779 45.7076 27.3772C44.2482 30.3127 39.8289 31.6679 36.8474 32.3616Z"
    fill="white" />
  <path
    d="M26 51C39.8071 51 51 39.8071 51 26C51 12.1929 39.8071 1 26 1C12.1929 1 1 12.1929 1 26C1 39.8071 12.1929 51 26 51Z"
    fill="url(#paint0_radial_243_24994)" fill-opacity="0.2" />
  <path
    d="M26 51C39.8071 51 51 39.8071 51 26C51 12.1929 39.8071 1 26 1C12.1929 1 1 12.1929 1 26C1 39.8071 12.1929 51 26 51Z"
    stroke="white" stroke-width="1.21491" stroke-miterlimit="10" />
  <path
    d="M26.0017 48.7358C38.5557 48.7358 48.7328 38.5587 48.7328 26.0046C48.7328 13.4505 38.5557 3.27344 26.0017 3.27344C13.4476 3.27344 3.27051 13.4505 3.27051 26.0046C3.27051 38.5587 13.4476 48.7358 26.0017 48.7358Z"
    stroke="white" stroke-width="0.587176" stroke-miterlimit="10" />
  <path
    d="M20.5373 27.4948C20.7305 27.6185 21.182 27.8133 21.6552 27.8133C22.5319 27.8133 22.804 27.2536 22.7963 26.8346C22.7885 26.128 22.1515 25.8249 21.4913 25.8249H21.1109V25.3131H21.4913C21.9876 25.3131 22.6169 25.0565 22.6169 24.4596C22.6169 24.0561 22.3602 23.6989 21.7325 23.6989C21.3289 23.6989 20.9408 23.8782 20.7228 24.0329L20.5435 23.5365C20.8079 23.3417 21.3196 23.1484 21.8639 23.1484C22.8581 23.1484 23.3081 23.7391 23.3081 24.3514C23.3081 24.8709 22.9973 25.3147 22.3757 25.5389V25.5543C22.9973 25.678 23.5013 26.145 23.5013 26.8516C23.5013 27.6587 22.872 28.3653 21.6614 28.3653C21.0939 28.3653 20.5976 28.186 20.3486 28.0236L20.5357 27.4948H20.5373Z"
    fill="white" />
  <path
    d="M27.2377 23.7144C27.0985 23.7067 26.9192 23.7144 26.7259 23.7454C25.6544 23.9247 25.0869 24.7086 24.9709 25.5389H24.9941C25.2353 25.2204 25.6544 24.956 26.2125 24.956C27.1047 24.956 27.734 25.6008 27.734 26.5873C27.734 27.5119 27.1047 28.3654 26.0564 28.3654C25.008 28.3654 24.2705 27.5274 24.2705 26.2146C24.2705 25.2204 24.6277 24.4365 25.124 23.9402C25.543 23.5289 26.1028 23.2722 26.7398 23.1949C26.9408 23.164 27.1124 23.1562 27.2361 23.1562V23.716L27.2377 23.7144ZM27.0444 26.6259C27.0444 25.9039 26.6331 25.4694 26.0038 25.4694C25.5925 25.4694 25.2121 25.726 25.0251 26.0909C24.9787 26.1683 24.9477 26.2688 24.9477 26.394C24.9632 27.2243 25.3436 27.8382 26.0579 27.8382C26.6486 27.8382 27.0444 27.3496 27.0444 26.6275V26.6259Z"
    fill="white" />
  <path
    d="M31.6944 25.7012C31.6944 27.4175 31.0573 28.3653 29.9394 28.3653C28.953 28.3653 28.285 27.4407 28.2695 25.7723C28.2695 24.0793 28.9993 23.1484 30.0245 23.1484C31.0496 23.1484 31.6944 24.0963 31.6944 25.7028V25.7012ZM28.953 25.7785C28.953 27.0913 29.3565 27.8365 29.9781 27.8365C30.677 27.8365 31.0109 27.0217 31.0109 25.7321C31.0109 24.4426 30.6924 23.6741 29.9858 23.6741C29.3874 23.6741 28.953 24.404 28.953 25.7785Z"
    fill="white" />
  <defs>
    <radialGradient id="paint0_radial_243_24994" cx="0" cy="0" r="1" gradientUnits="userSpaceOnUse"
      gradientTransform="translate(26 26) rotate(90) scale(26)">
      <stop offset="0.375" stop-color="white" />
      <stop offset="1" stop-color="white" stop-opacity="0" />
    </radialGradient>
  </defs>
</svg>