<svg width="67" height="28" viewBox="0 0 67 28" fill="none" xmlns="http://www.w3.org/2000/svg">
  <path
    d="M4.79224 9.1133C4.79224 8.79211 5.03638 8.52355 5.35612 8.49303L16.5717 7.42245C16.9376 7.38753 17.254 7.67521 17.254 8.04272V19.7568C17.254 20.1243 16.9376 20.412 16.5717 20.377L5.35612 19.3065C5.03638 19.2759 4.79224 19.0074 4.79224 18.6862V9.1133Z"
    fill="currentColor" />
  <path
    d="M0.430664 7.3572C0.430664 6.32484 1.26756 5.48794 2.29993 5.48794H2.92302C3.26714 5.48794 3.5461 5.7669 3.5461 6.11103V21.6882C3.5461 22.0323 3.26714 22.3113 2.92302 22.3113H2.29993C1.26756 22.3113 0.430664 21.4744 0.430664 20.442V7.3572Z"
    fill="currentColor" />
  <rect x="2.9231" y="10.4728" width="1.86873" height="1.24582" fill="currentColor" />
  <rect x="12.2693" y="6.73423" width="1.24582" height="1.24582" fill="currentColor" />
  <rect x="12.2693" y="19.8191" width="1.24582" height="1.24582" fill="currentColor" />
  <rect x="2.9231" y="15.4574" width="1.86873" height="1.24582" fill="currentColor" />
  <path
    d="M15.6669 5.52041L3.2051 6.70725C3.04521 6.72248 2.9231 6.85677 2.9231 7.01739V7.63766C2.9231 7.82139 3.08127 7.96522 3.26418 7.9478L15.7259 6.76096C15.8858 6.74574 16.0079 6.61144 16.0079 6.45082V5.83055C16.0079 5.64682 15.8498 5.50299 15.6669 5.52041Z"
    fill="currentColor" />
  <path
    d="M15.6669 22.2789L3.2051 21.092C3.04521 21.0768 2.9231 20.9425 2.9231 20.7819V20.1616C2.9231 19.9779 3.08127 19.8341 3.26418 19.8515L15.7259 21.0383C15.8858 21.0535 16.0079 21.1878 16.0079 21.3485V21.9687C16.0079 22.1525 15.8498 22.2963 15.6669 22.2789Z"
    fill="currentColor" />
  <rect x="20.403" y="0.656403" width="26.4866" height="26.4866" rx="2.62549" fill="currentColor"
    stroke="currentColor" stroke-width="1.31275" />
  <path
    d="M62.4998 9.11329C62.4998 8.7921 62.2556 8.52354 61.9359 8.49302L50.7203 7.42244C50.3544 7.38752 50.038 7.6752 50.038 8.04271V19.7568C50.038 20.1243 50.3544 20.412 50.7203 20.377L61.9359 19.3065C62.2556 19.2759 62.4998 19.0074 62.4998 18.6862V9.11329Z"
    fill="currentColor" />
  <path
    d="M66.8613 7.35719C66.8613 6.32483 66.0244 5.48793 64.9921 5.48793H64.369C64.0249 5.48793 63.7459 5.7669 63.7459 6.11102V21.6882C63.7459 22.0323 64.0249 22.3113 64.369 22.3113H64.9921C66.0244 22.3113 66.8613 21.4744 66.8613 20.442V7.35719Z"
    fill="currentColor" />
  <rect width="1.86873" height="1.24582" transform="matrix(-1 0 0 1 64.3689 10.4728)"
    fill="currentColor" />
  <rect width="1.24582" height="1.24582" transform="matrix(-1 0 0 1 55.0227 6.73422)"
    fill="currentColor" />
  <rect width="1.24582" height="1.24582" transform="matrix(-1 0 0 1 55.0227 19.8191)"
    fill="currentColor" />
  <rect width="1.86873" height="1.24582" transform="matrix(-1 0 0 1 64.3689 15.4574)"
    fill="currentColor" />
  <path
    d="M51.6251 5.52041L64.0869 6.70724C64.2468 6.72247 64.3689 6.85676 64.3689 7.01738V7.63765C64.3689 7.82138 64.2107 7.96521 64.0278 7.94779L51.5661 6.76096C51.4062 6.74573 51.284 6.61144 51.284 6.45082V5.83055C51.284 5.64682 51.4422 5.50299 51.6251 5.52041Z"
    fill="currentColor" />
  <path
    d="M51.6251 22.2789L64.0869 21.0921C64.2468 21.0769 64.3689 20.9426 64.3689 20.7819V20.1617C64.3689 19.9779 64.2107 19.8341 64.0278 19.8515L51.5661 21.0384C51.4062 21.0536 51.284 21.1879 51.284 21.3485V21.9688C51.284 22.1525 51.4422 22.2963 51.6251 22.2789Z"
    fill="currentColor" />
</svg>